<svg width="17" height="43" viewBox="0 0 17 43" fill="none" xmlns="http://www.w3.org/2000/svg">
<path d="M12.124 0.796225L4.87612 0.796226C4.62729 0.805009 4.39158 0.910033 4.21866 1.08917C4.04573 1.26831 3.94909 1.50758 3.94909 1.75656C3.94908 2.00555 4.04573 2.24482 4.21866 2.42396C4.39158 2.6031 4.62729 2.70812 4.87612 2.7169L5.58052 2.71691L3.95202 14.0847L0.449275 19.3405C0.343503 19.4978 0.287474 19.6832 0.288466 19.8728L0.29073 38.7466C0.290811 39.681 0.662022 40.5771 1.32272 41.2378C1.98342 41.8985 2.87949 42.2697 3.81386 42.2697H13.1862C14.1206 42.2697 15.0167 41.8985 15.6774 41.2378C16.3381 40.5771 16.7093 39.681 16.7094 38.7466L16.7082 19.8762C16.7092 19.6866 16.6532 19.5012 16.5474 19.3439L13.0447 14.0881L11.4162 2.7203L12.1206 2.7203C12.3694 2.71152 12.6051 2.60649 12.778 2.42736C12.951 2.24822 13.0476 2.00895 13.0476 1.75996C13.0476 1.51098 12.951 1.27171 12.778 1.09257C12.6051 0.91343 12.3694 0.808405 12.1206 0.799621L12.124 0.796225ZM14.7864 38.7466C14.7864 39.1713 14.6176 39.5786 14.3173 39.8788C14.017 40.1791 13.6098 40.3479 13.1851 40.3479L3.81499 40.3479C3.39032 40.3479 2.98305 40.1791 2.68276 39.8789C2.38247 39.5786 2.21374 39.1713 2.21367 38.7466L2.21367 37.1453L14.7864 37.1453V38.7466ZM14.7864 35.2224L2.21367 35.2224L2.21367 24.4616H14.7864L14.7864 35.2224ZM11.1727 14.5762C11.1926 14.7181 11.2445 14.8537 11.3244 14.9726L14.7819 20.1627L14.7864 22.5386L2.21367 22.5386L2.2182 20.1627L5.68018 14.968C5.76017 14.8491 5.81206 14.7136 5.83193 14.5717L7.52612 2.71237L9.48304 2.71237L11.1727 14.5762Z" fill="#314058"/>
</svg>
