<svg width="18" height="43" viewBox="0 0 18 43" fill="none" xmlns="http://www.w3.org/2000/svg">
<path d="M12.4277 0.98519L5.17984 0.985191C4.931 0.993974 4.6953 1.099 4.52237 1.27814C4.34944 1.45728 4.2528 1.69654 4.2528 1.94553C4.2528 2.19452 4.34944 2.43378 4.52237 2.61292C4.6953 2.79206 4.931 2.89709 5.17983 2.90587L5.88423 2.90587L4.25573 14.2737L0.752986 19.5295C0.647214 19.6868 0.591185 19.8722 0.592177 20.0617L0.594441 38.9356C0.594522 39.87 0.965732 40.766 1.62643 41.4267C2.28713 42.0874 3.1832 42.4586 4.11757 42.4587H13.4899C14.4243 42.4586 15.3204 42.0874 15.9811 41.4267C16.6418 40.766 17.013 39.8699 17.0131 38.9356L17.0119 20.0651C17.0129 19.8756 16.9569 19.6902 16.8511 19.5329L13.3484 14.2771L11.7199 2.90927L12.4243 2.90927C12.6731 2.90049 12.9088 2.79546 13.0817 2.61632C13.2547 2.43718 13.3513 2.19792 13.3513 1.94893C13.3513 1.69994 13.2547 1.46067 13.0817 1.28154C12.9088 1.1024 12.6731 0.99737 12.4243 0.988586L12.4277 0.98519ZM15.0901 38.9356C15.0901 39.3603 14.9213 39.7675 14.621 40.0678C14.3207 40.3681 13.9135 40.5368 13.4888 40.5369L4.1187 40.5369C3.69403 40.5368 3.28676 40.3681 2.98647 40.0678C2.68618 39.7675 2.51745 39.3603 2.51738 38.9356L2.51738 37.3343L15.0901 37.3343V38.9356ZM15.0901 35.4113L2.51738 35.4113L2.51738 24.6505H15.0901L15.0901 35.4113ZM11.4764 14.7652C11.4963 14.9071 11.5482 15.0426 11.6281 15.1615L15.0856 20.3517L15.0901 22.7276L2.51738 22.7276L2.52191 20.3517L5.98389 15.157C6.06388 15.0381 6.11577 14.9025 6.13564 14.7606L7.82983 2.90134L9.78675 2.90134L11.4764 14.7652Z" fill="white" fill-opacity="0.99"/>
</svg>
