<svg width="41" height="41" viewBox="0 0 41 41" fill="none" xmlns="http://www.w3.org/2000/svg">
<path d="M35.875 20.4998V10.2498C35.875 9.34368 35.515 8.47464 34.8743 7.83389C34.2335 7.19314 33.3645 6.83317 32.4583 6.83317H8.54167C7.63551 6.83317 6.76647 7.19314 6.12572 7.83389C5.48497 8.47464 5.125 9.34368 5.125 10.2498V34.1665C5.125 35.0727 5.48497 35.9417 6.12572 36.5824C6.76647 37.2232 7.63551 37.5832 8.54167 37.5832H21.3542M27.3333 3.4165V10.2498M13.6667 3.4165V10.2498M5.125 17.0832H35.875M37.5833 37.5832L35.0208 35.0207M35.875 30.7498C35.875 33.5803 33.5805 35.8748 30.75 35.8748C27.9195 35.8748 25.625 33.5803 25.625 30.7498C25.625 27.9194 27.9195 25.6248 30.75 25.6248C33.5805 25.6248 35.875 27.9194 35.875 30.7498Z" stroke="#303F58" stroke-width="2" stroke-linecap="round" stroke-linejoin="round"/>
</svg>
