<svg width="20" height="20" viewBox="0 0 20 20" fill="none" xmlns="http://www.w3.org/2000/svg">
<g id="clipboard-pen">
<path id="Vector" d="M13.3335 3.33329H15.0002C15.4422 3.33329 15.8661 3.50889 16.1787 3.82145C16.4912 4.13401 16.6668 4.55793 16.6668 4.99996V16.6666C16.6668 17.1087 16.4912 17.5326 16.1787 17.8451C15.8661 18.1577 15.4422 18.3333 15.0002 18.3333H10.4168M3.3335 11.25V4.99996C3.3335 4.55793 3.50909 4.13401 3.82165 3.82145C4.13421 3.50889 4.55814 3.33329 5.00016 3.33329H6.66683M7.50016 1.66663H12.5002C12.9604 1.66663 13.3335 2.03972 13.3335 2.49996V4.16663C13.3335 4.62686 12.9604 4.99996 12.5002 4.99996H7.50016C7.03993 4.99996 6.66683 4.62686 6.66683 4.16663V2.49996C6.66683 2.03972 7.03993 1.66663 7.50016 1.66663ZM8.66683 10.5C8.99835 10.1685 9.44799 9.98226 9.91683 9.98226C10.3857 9.98226 10.8353 10.1685 11.1668 10.5C11.4983 10.8315 11.6846 11.2812 11.6846 11.75C11.6846 12.2189 11.4983 12.6685 11.1668 13L6.66683 17.5L3.3335 18.3334L4.16683 15L8.66683 10.5Z" stroke="#F7E7CE" stroke-opacity="0.8" stroke-width="2" stroke-linecap="round" stroke-linejoin="round"/>
</g>
</svg>
