<svg width="20" height="20" viewBox="0 0 20 20" fill="none" xmlns="http://www.w3.org/2000/svg">
<path d="M2.5 8.33329H17.5V4.99996C17.5 4.55793 17.3244 4.13401 17.0118 3.82145C16.6993 3.50889 16.2754 3.33329 15.8333 3.33329H4.16667C3.72464 3.33329 3.30072 3.50889 2.98816 3.82145C2.67559 4.13401 2.5 4.55793 2.5 4.99996V16.6666C2.5 17.1087 2.67559 17.5326 2.98816 17.8451C3.30072 18.1577 3.72464 18.3333 4.16667 18.3333H10M6.66667 1.66663V4.99996M13.3333 1.66663V4.99996M17.7418 12.2499C17.4578 11.9673 17.0965 11.7754 16.7034 11.6982C16.3103 11.6211 15.9031 11.6623 15.5335 11.8166C15.2835 11.9166 15.0585 12.0666 14.8668 12.2582L14.5835 12.5416L14.2918 12.2582C14.0088 11.9743 13.6478 11.7807 13.2547 11.7021C12.8616 11.6235 12.4539 11.6633 12.0835 11.8166C11.8335 11.9166 11.6168 12.0666 11.4251 12.2582C10.6335 13.0416 10.5918 14.3666 11.5918 15.3749L14.5835 18.3332L17.5835 15.3749C18.5835 14.3666 18.5335 13.0416 17.7418 12.2582V12.2499Z" stroke="#303F58" stroke-width="2" stroke-linecap="round" stroke-linejoin="round"/>
</svg>
