<svg width="32" height="32" viewBox="0 0 32 32" fill="none" xmlns="http://www.w3.org/2000/svg">
<g clip-path="url(#clip0_6102_1226)">
<path d="M9.87451 4.25806H27.4045V23.7379H9.87451V4.25806Z" fill="#F7E7CE"/>
<path d="M15.3111 5.23204C15.3111 4.90067 15.2847 4.57532 15.2338 4.25806H9.87451V11.3179C12.929 10.9751 15.3111 8.37654 15.3111 5.23204Z" fill="#DED0B9"/>
<path d="M2.09424 20.8159H5.99022V31.5297H2.09424V20.8159Z" fill="#E3E6D5"/>
<path d="M2.09424 20.8159H3.34848V31.5297H2.09424V20.8159Z" fill="#BDBFB2"/>
<path d="M9.87451 4.25806H11.1288V23.7379H9.87451V4.25806Z" fill="#DED0B9"/>
<path d="M5.99023 21.7898H7.94698V31.5297H5.99023V21.7898Z" fill="#FCFFED"/>
<path d="M20.5893 9.45776L18.6394 8.56324L16.6895 9.45776V4.25806H20.5893V9.45776Z" fill="#820000"/>
<path d="M16.9549 15.6189L14.4683 13.1323L11.9817 15.6189H13.4943V19.8419H15.4423V15.6189H16.9549Z" fill="#FCFFED"/>
<path d="M21.574 17.8723H25.47V19.8634H21.574V17.8723Z" fill="#DED0B9"/>
<path d="M7.93805 23.7378C7.93805 23.7378 9.80624 21.8411 13.5803 21.8411C14.3006 21.8411 15.0146 21.9743 15.6865 22.2339L17.1805 22.8114H20.1385C20.8301 22.8114 21.3907 23.372 21.3907 24.0635C21.3907 24.0635 21.3716 24.3144 21.3361 24.4305L21.3364 24.4306L23.7132 23.0584L28.0504 20.5537C28.6493 20.2082 29.415 20.4139 29.7605 21.0128C30.0904 21.582 29.8728 22.3943 29.3027 22.7229L21.3747 28.9195C20.8259 29.3491 20.1493 29.5817 19.4532 29.5817H7.93799L7.93805 23.7378Z" fill="#FFCEBF"/>
<path d="M14.1086 21.865C13.9333 21.8491 13.757 21.8411 13.5804 21.8411C9.80642 21.8411 7.93823 23.7378 7.93823 23.7378V29.5817H9.19247V23.7378C9.19247 23.7378 10.821 22.0844 14.1086 21.865Z" fill="#FFB09E"/>
<path d="M4.0658 24.2081C3.80605 24.2081 3.59546 23.9975 3.59546 23.7378C3.59546 23.478 3.80605 23.2675 4.0658 23.2675C4.32555 23.2675 4.53614 23.478 4.53614 23.7378C4.53614 23.9975 4.32562 24.2081 4.0658 24.2081Z" fill="black"/>
<path d="M9.1871 10.102C11.8767 10.102 14.0571 7.92163 14.0571 5.23203C14.0571 2.54242 11.8767 0.362061 9.1871 0.362061C6.4975 0.362061 4.31714 2.54242 4.31714 5.23203C4.31714 7.92163 6.4975 10.102 9.1871 10.102Z" fill="#ADE194"/>
<path d="M5.57138 5.23202C5.57138 2.7549 7.42082 0.709797 9.81422 0.402132C9.6089 0.37573 9.39957 0.362122 9.1871 0.362122C6.49751 0.362122 4.31714 2.54249 4.31714 5.23209C4.31714 7.92168 6.49751 10.1021 9.1871 10.1021C9.39957 10.1021 9.6089 10.0884 9.81422 10.062C7.42082 9.75425 5.57138 7.70915 5.57138 5.23202Z" fill="#7DCE6F"/>
<path d="M13.4943 20.3122H15.4424C15.7022 20.3122 15.9127 20.1016 15.9127 19.8419V16.0893H16.9549C17.4152 16.0923 17.6982 15.6742 17.2875 15.2864L14.801 12.7998C14.5793 12.6161 14.3575 12.6161 14.1358 12.7998L11.6492 15.2864C11.4025 15.7022 11.5216 16.0001 11.9819 16.0893H13.0241V19.8419C13.024 20.1016 13.2346 20.3122 13.4943 20.3122ZM14.4684 13.7975L15.8195 15.1486H15.4424C15.1826 15.1486 14.972 15.3592 14.972 15.6189V19.3715H13.9647V15.6189C13.9647 15.3592 13.7542 15.1486 13.4943 15.1486H13.1172L14.4684 13.7975Z" fill="black"/>
<path d="M25.4698 17.402H21.5739C21.314 17.402 21.1035 17.6126 21.1035 17.8723V19.8634C21.1035 20.1232 21.314 20.3338 21.5739 20.3338H25.4698C25.7297 20.3338 25.9402 20.1232 25.9402 19.8634V17.8723C25.9402 17.6126 25.7297 17.402 25.4698 17.402ZM24.9995 19.3931H22.0442V18.3427H24.9995V19.3931Z" fill="black"/>
<path d="M25.4698 15.4755H21.5739C21.314 15.4755 21.1035 15.6861 21.1035 15.9459C21.1035 16.2056 21.314 16.4162 21.5739 16.4162H25.4698C25.7297 16.4162 25.9402 16.2056 25.9402 15.9459C25.9402 15.6861 25.7297 15.4755 25.4698 15.4755Z" fill="black"/>
<path d="M29.8778 20.778C29.438 20.0159 28.3981 19.6857 27.5847 20.1142V12.8021C27.5847 12.5424 27.3742 12.3318 27.1143 12.3318C26.8545 12.3318 26.644 12.5424 26.644 12.8021V20.6554L22.1205 23.2675H21.3741C21.0861 22.7178 20.5109 22.3412 19.8485 22.3412H16.9781C15.8192 21.8459 14.5644 21.3705 13.2901 21.3705C12.0011 21.3705 10.9244 21.5816 10.0548 21.8676V10.4441C12.6438 9.8692 14.4635 7.36436 14.2124 4.72858H15.9289V9.45775C15.9953 9.84312 16.2174 9.9856 16.5953 9.88526L18.3491 9.08066L20.103 9.88526C20.3873 10.0157 20.7694 9.80587 20.7694 9.45775V4.72858H26.6441V10.7521C26.6441 11.0118 26.8546 11.2224 27.1144 11.2224C27.3742 11.2224 27.5848 11.0118 27.5848 10.7521V4.25824C27.5848 3.99848 27.3742 3.78789 27.1144 3.78789H14.0363C13.5129 1.92673 11.9145 0.415932 10.0202 0.010499C9.76638 -0.0437469 9.51629 0.117925 9.46192 0.371971C9.40754 0.625955 9.5694 0.875988 9.82345 0.930359C11.8358 1.36107 13.2964 3.17024 13.2964 5.23215C13.2964 7.65792 11.3226 9.6314 8.89657 9.6314C6.4708 9.6314 4.49732 7.65792 4.49732 5.23215C4.49732 3.17024 5.95794 1.36107 7.97031 0.930359C8.22436 0.875988 8.38622 0.625955 8.33184 0.371971C8.27747 0.117925 8.02688 -0.0438096 7.77352 0.010499C5.36193 0.526682 3.55657 2.76456 3.55657 5.23215C3.55657 8.20483 6.14915 10.6861 9.11411 10.5666V22.2363C8.72009 22.4179 8.39129 22.6058 8.1269 22.777V21.7898C8.1269 21.5301 7.91638 21.3195 7.65656 21.3195H6.17016V20.8158C6.17016 20.5561 5.95964 20.3455 5.69982 20.3455H1.80384C1.54402 20.3455 1.3335 20.5561 1.3335 20.8158V31.5297C1.3335 31.7894 1.54402 32 1.80384 32H7.6565C7.91631 32 8.12684 31.7894 8.12684 31.5297V30.0523H13.1528C13.4126 30.0523 13.6231 29.8417 13.6231 29.582C13.6231 29.3222 13.4126 29.1116 13.1528 29.1116H8.12684V23.9416C8.61606 23.5375 10.3437 22.3112 13.29 22.3112C14.5741 22.3112 16.7597 23.2675 16.8903 23.282H19.8485C20.7301 23.282 21.0013 24.8455 19.8571 24.8455H14.1779C13.918 24.8455 13.7075 25.0561 13.7075 25.3158C13.7075 25.5756 13.918 25.7861 14.1779 25.7861H19.8571C20.5545 25.7861 21.1668 25.3759 21.437 24.7484L27.9953 20.9615C28.8772 20.4524 29.6356 21.8202 28.7774 22.316C28.7584 22.327 20.7947 28.5495 20.7947 28.5495C20.3315 28.9121 19.7521 29.1118 19.1631 29.1118H15.2028C14.943 29.1118 14.7325 29.3223 14.7325 29.5821C14.7325 29.8419 14.943 30.0524 15.2028 30.0524H19.1631C19.9613 30.0524 20.7466 29.7818 21.3742 29.2904L29.2787 23.1122C30.0903 22.494 30.29 21.7159 29.8778 20.778ZM19.8287 8.72452L18.5452 8.13572C18.4144 8.07859 18.2837 8.07859 18.153 8.13572L16.8695 8.72452V4.72858H19.8287V8.72452ZM2.27418 21.2862H5.22942V31.0593H2.27418V21.2862ZM6.1701 31.0593V22.2602H7.18616V31.0594L6.1701 31.0593Z" fill="black"/>
<path d="M7.13799 5.1569C6.96954 4.95917 6.67279 4.93528 6.47493 5.10378C6.2772 5.27223 6.25343 5.56904 6.42182 5.76684L7.88514 7.48496C7.97463 7.59 8.10557 7.65033 8.24322 7.65033C8.24586 7.65033 8.24855 7.65033 8.25125 7.65027C8.39179 7.64788 8.52398 7.58266 8.61147 7.4726L11.5033 3.83349C11.6649 3.63011 11.6311 3.33424 11.4277 3.17263C11.2243 3.01089 10.9285 3.04482 10.7668 3.24826L8.23068 6.4398L7.13799 5.1569Z" fill="black"/>
</g>
<defs>
<clipPath id="clip0_6102_1226">
<rect width="32" height="32" fill="white"/>
</clipPath>
</defs>
</svg>
