<svg width="20" height="20" viewBox="0 0 20 20" fill="none" xmlns="http://www.w3.org/2000/svg">
<g id="circle-dollar-sign" clip-path="url(#clip0_6375_1249)">
<path id="Vector" d="M13.3332 6.66663H8.33317C7.89114 6.66663 7.46722 6.84222 7.15466 7.15478C6.8421 7.46734 6.6665 7.89127 6.6665 8.33329C6.6665 8.77532 6.8421 9.19924 7.15466 9.5118C7.46722 9.82436 7.89114 9.99996 8.33317 9.99996H11.6665C12.1085 9.99996 12.5325 10.1756 12.845 10.4881C13.1576 10.8007 13.3332 11.2246 13.3332 11.6666C13.3332 12.1087 13.1576 12.5326 12.845 12.8451C12.5325 13.1577 12.1085 13.3333 11.6665 13.3333H6.6665M9.99984 15V4.99996M18.3332 9.99996C18.3332 14.6023 14.6022 18.3333 9.99984 18.3333C5.39746 18.3333 1.6665 14.6023 1.6665 9.99996C1.6665 5.39759 5.39746 1.66663 9.99984 1.66663C14.6022 1.66663 18.3332 5.39759 18.3332 9.99996Z" stroke="#F7E7CE" stroke-opacity="0.8" stroke-width="2" stroke-linecap="round" stroke-linejoin="round"/>
</g>
<defs>
<clipPath id="clip0_6375_1249">
<rect width="20" height="20" fill="white"/>
</clipPath>
</defs>
</svg>
