<svg width="21" height="20" viewBox="0 0 21 20" fill="none" xmlns="http://www.w3.org/2000/svg">
<path d="M8.00033 10.8333L9.66699 12.5L13.0003 9.16667M17.167 16.6667C17.609 16.6667 18.0329 16.4911 18.3455 16.1785C18.6581 15.866 18.8337 15.442 18.8337 15V6.66667C18.8337 6.22464 18.6581 5.80072 18.3455 5.48816C18.0329 5.17559 17.609 5 17.167 5H10.5837C10.3049 5.00273 10.0299 4.93551 9.78391 4.80448C9.53787 4.67346 9.32863 4.48281 9.17533 4.25L8.50033 3.25C8.34857 3.01956 8.14197 2.8304 7.89907 2.6995C7.65618 2.56859 7.38458 2.50005 7.10866 2.5H3.83366C3.39163 2.5 2.96771 2.67559 2.65515 2.98816C2.34259 3.30072 2.16699 3.72464 2.16699 4.16667V15C2.16699 15.442 2.34259 15.866 2.65515 16.1785C2.96771 16.4911 3.39163 16.6667 3.83366 16.6667H17.167Z" stroke="#303F58" stroke-width="2" stroke-linecap="round" stroke-linejoin="round"/>
</svg>
