<svg width="36" height="36" viewBox="0 0 36 36" fill="none" xmlns="http://www.w3.org/2000/svg">
<rect width="36" height="36" rx="18" fill="#820000"/>
<g clip-path="url(#clip0_6439_3133)">
<path d="M17.3335 20H18.6668C19.0205 20 19.3596 19.8595 19.6096 19.6095C19.8597 19.3594 20.0002 19.0203 20.0002 18.6667C20.0002 18.313 19.8597 17.9739 19.6096 17.7239C19.3596 17.4738 19.0205 17.3333 18.6668 17.3333H16.6668C16.2668 17.3333 15.9335 17.4667 15.7335 17.7333L12.0002 21.3333M14.6668 24L15.7335 23.0667C15.9335 22.8 16.2668 22.6667 16.6668 22.6667H19.3335C20.0668 22.6667 20.7335 22.4 21.2002 21.8667L24.2668 18.9333C24.5241 18.6902 24.6742 18.3549 24.6842 18.0011C24.6942 17.6472 24.5633 17.3039 24.3202 17.0467C24.077 16.7894 23.7417 16.6393 23.3879 16.6293C23.0341 16.6193 22.6908 16.7502 22.4335 16.9933L19.6335 19.5933M11.3335 20.6667L15.3335 24.6667M22.6002 16.0001C22.6002 17.0678 21.7346 17.9334 20.6669 17.9334C19.5991 17.9334 18.7336 17.0678 18.7336 16.0001C18.7336 14.9323 19.5991 14.0667 20.6669 14.0667C21.7346 14.0667 22.6002 14.9323 22.6002 16.0001ZM16.0002 13.3333C16.0002 14.4379 15.1047 15.3333 14.0002 15.3333C12.8956 15.3333 12.0002 14.4379 12.0002 13.3333C12.0002 12.2288 12.8956 11.3333 14.0002 11.3333C15.1047 11.3333 16.0002 12.2288 16.0002 13.3333Z" stroke="white" stroke-width="2" stroke-linecap="round" stroke-linejoin="round"/>
</g>
<defs>
<clipPath id="clip0_6439_3133">
<rect width="16" height="16" fill="white" transform="translate(10 10)"/>
</clipPath>
</defs>
</svg>
