<svg width="36" height="36" viewBox="0 0 36 36" fill="none" xmlns="http://www.w3.org/2000/svg">
<rect width="36" height="36" rx="18" fill="#820000"/>
<path d="M14.3335 16.6667C14.5176 16.6667 14.6668 16.5174 14.6668 16.3333C14.6668 16.1492 14.5176 16 14.3335 16C14.1494 16 14.0002 16.1492 14.0002 16.3333C14.0002 16.5174 14.1494 16.6667 14.3335 16.6667Z" fill="black"/>
<path d="M20.0002 13.3333L24.2002 17.5333C24.3493 17.682 24.4677 17.8586 24.5484 18.0531C24.6292 18.2476 24.6708 18.4561 24.6708 18.6667C24.6708 18.8772 24.6292 19.0858 24.5484 19.2802C24.4677 19.4747 24.3493 19.6513 24.2002 19.8L21.3335 22.6667M16.3908 13.724C16.1408 13.4739 15.8018 13.3334 15.4482 13.3333H12.0002C11.8234 13.3333 11.6538 13.4036 11.5288 13.5286C11.4037 13.6536 11.3335 13.8232 11.3335 14V17.448C11.3336 17.8016 11.4741 18.1407 11.7242 18.3907L15.5268 22.1933C15.8298 22.4944 16.2397 22.6634 16.6668 22.6634C17.094 22.6634 17.5038 22.4944 17.8068 22.1933L20.1935 19.8067C20.4946 19.5037 20.6636 19.0938 20.6636 18.6667C20.6636 18.2395 20.4946 17.8297 20.1935 17.5267L16.3908 13.724ZM14.6668 16.3333C14.6668 16.5174 14.5176 16.6667 14.3335 16.6667C14.1494 16.6667 14.0002 16.5174 14.0002 16.3333C14.0002 16.1492 14.1494 16 14.3335 16C14.5176 16 14.6668 16.1492 14.6668 16.3333Z" stroke="white" stroke-width="2" stroke-linecap="round" stroke-linejoin="round"/>
</svg>
