<svg width="19" height="20" viewBox="0 0 19 20" fill="none" xmlns="http://www.w3.org/2000/svg">
<path d="M14.5469 0.5H4.45312C1.99373 0.5 0 2.49373 0 4.95312V15.0469C0 17.5063 1.99373 19.5 4.45312 19.5H14.5469C17.0063 19.5 19 17.5063 19 15.0469V4.95312C19 2.49373 17.0063 0.5 14.5469 0.5Z" fill="#F4F2ED"/>
<path d="M3.09017 15.5693H5.45166V9.83419L2.07812 7.30408V14.5573C2.07812 15.1172 2.5319 15.5693 3.09017 15.5693Z" fill="#4285F4"/>
<path d="M13.5482 15.5694H15.9098C16.4698 15.5694 16.9218 15.1156 16.9218 14.5573V7.30408L13.5482 9.83427" fill="#34A853"/>
<path d="M13.5482 5.44859V9.83425L16.9218 7.30414V5.95454C16.9218 4.70299 15.4931 3.98945 14.4929 4.7401" fill="#FBBC04"/>
<path d="M5.45178 9.83422V5.44863L9.50004 8.4847L13.5483 5.44849V9.83415L9.50004 12.8704" fill="#EA4335"/>
<path d="M2.07812 5.95454V7.30399L5.45166 9.83418V5.44859L4.50708 4.7401C3.50513 3.98945 2.07812 4.70299 2.07812 5.95454Z" fill="#C5221F"/>
</svg>
