<svg width="32" height="32" viewBox="0 0 32 32" fill="none" xmlns="http://www.w3.org/2000/svg">
<path d="M1.88745 1.88751H16.9125V3.46876H1.88745V1.88751Z" fill="#F7E7CE"/>
<path d="M9.40002 13.4875C12.6063 13.4875 15.2438 9.84374 15.4938 5.23749H3.30627C3.55627 9.84999 6.19377 13.4875 9.40002 13.4875Z" fill="#E3E6D5"/>
<path d="M14.9312 25.525C14.8562 25.3625 14.7875 25.2 14.725 25.0312L1.88745 25.0562V26.6375H13.875C13.9125 26.5688 14.9312 25.525 14.9312 25.525Z" fill="#F7E7CE"/>
<path d="M12.5562 23.2938V20.2875C12.5562 19.8 12.95 19.4063 13.4375 19.4063H14.7187C14.7812 19.2375 14.85 19.075 14.925 18.9125L14.9062 18.8937C14.575 18.925 14.2312 18.7687 14.0562 18.4625C12.8812 16.4437 11.1812 15.2812 9.39995 15.2812C6.24995 15.2812 3.6562 18.8 3.32495 23.2938H12.5562Z" fill="#E3E6D5"/>
<path d="M28.2187 20.525C28.0812 20.0437 27.8937 19.5875 27.6625 19.1687C27.4687 18.825 27.5312 18.3937 27.8062 18.1125L28.5375 17.375L27.05 15.8875L26.325 16.625C26.0437 16.9062 25.6125 16.9625 25.2687 16.7687C24.85 16.5312 24.3937 16.3437 23.9125 16.2125C23.5312 16.1062 23.2687 15.7562 23.2687 15.3625V14.3187H21.1687V15.3625C21.1687 15.7562 20.9062 16.1062 20.525 16.2125C20.0437 16.35 19.5875 16.5375 19.1687 16.7687C18.825 16.9625 18.3937 16.9 18.1125 16.625L17.375 15.8937L15.8937 17.375L16.6312 18.1125C16.9125 18.3937 16.9687 18.825 16.775 19.1687C16.5375 19.5875 16.35 20.0437 16.2187 20.525C16.1125 20.9062 15.7625 21.1687 15.3687 21.1687H14.325V23.2687H15.3687C15.7625 23.2687 16.1125 23.5312 16.2187 23.9125C16.3562 24.3937 16.5437 24.85 16.7812 25.2687C16.975 25.6125 16.9125 26.0437 16.6375 26.325L15.9062 27.0625L17.3937 28.55L18.1312 27.8187C18.4125 27.5375 18.8437 27.4812 19.1875 27.675C19.6062 27.9125 20.0625 28.1 20.5437 28.2312C20.925 28.3375 21.1875 28.6875 21.1875 29.0812V30.125H23.2875V29.0812C23.2875 28.6875 23.55 28.3375 23.9312 28.2312C24.4125 28.0937 24.8687 27.9062 25.2875 27.675C25.6312 27.4812 26.0625 27.5375 26.3437 27.8187L27.075 28.55L28.5625 27.0625L27.8312 26.325C27.55 26.0437 27.4937 25.6125 27.6875 25.2687C27.925 24.85 28.1125 24.3937 28.2437 23.9125C28.35 23.5312 28.7 23.2687 29.0937 23.2687H30.1375V21.1687H29.0937C28.675 21.1687 28.325 20.9062 28.2187 20.525ZM22.2187 26.2937C19.975 26.2937 18.1437 24.4687 18.1437 22.2187C18.1437 19.975 19.9687 18.1437 22.2187 18.1437C24.4625 18.1437 26.2937 19.9687 26.2937 22.2187C26.2937 24.4625 24.4625 26.2937 22.2187 26.2937Z" fill="#F7E7CE"/>
<path d="M22.2188 18.1437C19.975 18.1437 18.1438 19.9687 18.1438 22.2187C18.1438 24.4625 19.9688 26.2937 22.2188 26.2937C24.4625 26.2937 26.2938 24.4687 26.2938 22.2187C26.2938 19.9687 24.4625 18.1437 22.2188 18.1437ZM22.2188 24.525C20.9438 24.525 19.9063 23.4875 19.9063 22.2125C19.9063 20.9375 20.9438 19.9 22.2188 19.9C23.4938 19.9 24.5313 20.9375 24.5313 22.2125C24.525 23.4937 23.4938 24.525 22.2188 24.525Z" fill="#303F58"/>
<path d="M30.9937 19.4H29.7125C29.65 19.2312 29.5812 19.0688 29.5062 18.9062L30.4125 18C30.7562 17.6562 30.7562 17.1 30.4125 16.75L27.6812 14.0188C27.35 13.6875 26.7625 13.6875 26.4312 14.0188L25.525 14.925C25.3625 14.85 25.2 14.7812 25.0312 14.7188V13.4375C25.0312 12.95 24.6375 12.5562 24.15 12.5562H20.2875C19.8 12.5562 19.4062 12.95 19.4062 13.4375V14.7188C19.2375 14.7812 19.075 14.85 18.9125 14.925L18 14.0188C17.6687 13.6875 17.0812 13.6875 16.75 14.0188L14.6 16.1688C13.975 15.4188 13.2687 14.8188 12.5062 14.375C15.1562 12.8188 17.0562 9.3375 17.2562 5.23125H17.7875C18.275 5.23125 18.6687 4.8375 18.6687 4.35V1.00625C18.6687 0.51875 18.275 0.125 17.7875 0.125H1.00625C0.51875 0.125 0.125 0.51875 0.125 1.00625V4.35625C0.125 4.84375 0.51875 5.2375 1.00625 5.2375H1.5375C1.7375 9.35 3.64375 12.8313 6.3 14.3875C3.69375 15.9062 1.8125 19.2875 1.55 23.2938H1.00625C0.51875 23.2938 0.125 23.6875 0.125 24.175V27.525C0.125 28.0125 0.51875 28.4062 1.00625 28.4062H14.7437L16.75 30.4125C17.0937 30.7563 17.65 30.7563 18 30.4125L18.9062 29.5063C19.0687 29.5813 19.2312 29.65 19.4 29.7125V30.9937C19.4 31.4812 19.7937 31.875 20.2812 31.875H24.1437C24.6312 31.875 25.025 31.4812 25.025 30.9937V29.7125C25.1937 29.65 25.3562 29.5813 25.5187 29.5063L26.425 30.4125C26.8437 30.7563 27.2625 30.7563 27.675 30.4125L30.4062 27.6812C30.7625 27.2312 30.7375 26.8188 30.4062 26.4312L29.5 25.525C29.575 25.3625 29.6437 25.2 29.7062 25.0312H30.9875C31.475 25.0312 31.8687 24.6375 31.8687 24.15V20.2875C31.875 19.8 31.4812 19.4 30.9937 19.4ZM30.1125 23.2687H29.0687C28.675 23.2687 28.325 23.5312 28.2187 23.9125C28.0812 24.3938 27.8937 24.85 27.6625 25.2687C27.4687 25.6125 27.5312 26.0438 27.8062 26.325L28.5375 27.0625L27.05 28.55L26.3187 27.8188C26.0375 27.5375 25.6062 27.4812 25.2625 27.675C24.8438 27.9125 24.3875 28.1 23.9062 28.2313C23.525 28.3375 23.2625 28.6875 23.2625 29.0812V30.125H21.1625V29.0812C21.1625 28.6875 20.9 28.3375 20.5187 28.2313C20.0375 28.0938 19.5812 27.9062 19.1625 27.675C18.8187 27.4812 18.3875 27.5438 18.1062 27.8188L17.375 28.5438L15.8875 27.0562L16.6187 26.3188C16.9 26.0375 16.9562 25.6063 16.7625 25.2625C16.525 24.8438 16.3375 24.3875 16.2 23.9062C16.0938 23.525 15.7437 23.2625 15.35 23.2625H14.3062V21.1625H15.35C15.7437 21.1625 16.0938 20.9 16.2 20.5187C16.3375 20.0375 16.525 19.5813 16.7562 19.1625C16.95 18.8188 16.8875 18.3875 16.6125 18.1063L15.8937 17.375L17.3812 15.8875L18.1187 16.6187C18.4 16.9 18.8312 16.9563 19.175 16.7625C19.5937 16.525 20.05 16.3375 20.5312 16.2062C20.9125 16.1 21.175 15.75 21.175 15.3562V14.3125H23.275V15.3562C23.275 15.75 23.5375 16.1 23.9187 16.2062C24.4 16.3438 24.8562 16.5312 25.275 16.7625C25.6187 16.9563 26.05 16.9 26.3312 16.6187L27.0625 15.8875L28.55 17.375L27.8187 18.1125C27.5375 18.3937 27.4812 18.825 27.675 19.1688C27.9125 19.5875 28.1 20.0437 28.2312 20.525C28.3375 20.9062 28.6875 21.1688 29.0812 21.1688H30.125V23.2687H30.1125ZM1.8875 25.0562L14.725 25.0312C14.7875 25.2 14.8562 25.3625 14.9312 25.525C14.9312 25.525 13.9125 26.5688 13.875 26.6375H1.8875V25.0562ZM15.4937 5.2375C15.2437 9.85 12.6062 13.4875 9.4 13.4875C6.19375 13.4875 3.55625 9.84375 3.30625 5.2375H15.4937ZM9.4 15.2812C11.1875 15.2812 12.8812 16.4375 14.0562 18.4625C14.2375 18.7687 14.575 18.9312 14.9062 18.8937L14.925 18.9125C14.85 19.075 14.7812 19.2375 14.7187 19.4062H13.4375C12.95 19.4062 12.5562 19.8 12.5562 20.2875V23.2938H3.325C3.65625 18.7938 6.25 15.2812 9.4 15.2812ZM1.8875 1.8875H16.9125V3.46875H1.8875V1.8875Z" fill="#303F58"/>
</svg>
