<svg width="112" height="200" viewBox="0 0 112 200" fill="none" xmlns="http://www.w3.org/2000/svg">
<path d="M11.4357 11.1499C11.6835 9.12934 12.9934 7.96899 14.7825 7.05535C16.5711 6.14172 18.8084 6.19717 20.5553 7.1983C21.7238 7.86775 22.7142 8.9401 24.0292 9.20819C26.1943 9.64924 28.3975 7.74007 30.5066 8.40495C31.7549 8.79868 32.636 10.1569 32.4997 11.477C32.3634 12.7971 31.2239 13.9346 29.9231 14.05C31.3393 14.3619 32.0271 16.2573 31.4075 17.5866C30.7879 18.9158 29.2348 19.6021 27.7881 19.5313C26.3413 19.4606 24.9927 18.7632 23.7917 17.9376C22.5906 17.1119 21.4827 16.1429 20.2216 15.4164C18.96 14.6905 17.4853 14.2133 16.0639 14.4921C14.1395 14.8696 12.68 16.588 12.0594 18.4768C11.4388 20.3656 11.5166 22.4126 11.6799 24.3986C11.8432 26.3846 12.0843 28.3935 11.7695 30.3596C11.7323 30.5906 11.6636 30.8526 11.4556 30.9513C11.1544 31.0937 10.8395 30.791 10.6432 30.5184C8.42065 27.4371 6.80043 23.9098 5.9051 20.2013C5.38521 18.0474 5.15731 15.9709 6.08569 13.9676C7.01306 11.9649 9.81145 10.1941 11.4357 11.1499Z" fill="#263238"/>
<path d="M8.94355 20.8214L10.811 41.0857C11.1595 44.8694 14.5332 51.42 20.3935 50.601L20.2495 50.2744C25.2806 49.1741 24.077 43.1022 23.7291 38.6093C23.7291 38.6093 29.2526 37.5593 29.1386 31.9153C29.0832 29.1881 28.5195 23.5781 27.9518 18.5094C27.3419 13.0657 22.7157 9.00369 17.329 9.17106L16.7934 9.18784C11.0287 9.71028 8.2568 14.9784 8.94355 20.8214Z" fill="#FFBF9D"/>
<path d="M23.7295 38.6093C23.7295 38.6093 20.2373 38.9267 16.4316 36.662C16.4316 36.662 18.3199 40.9829 23.8425 40.3028L23.7295 38.6093Z" fill="#FF9A6C"/>
<path d="M26.4147 23.7439C26.4437 24.1687 26.1131 24.5431 25.6766 24.5802C25.2411 24.6179 24.8647 24.3045 24.8357 23.8792C24.8072 23.4545 25.1374 23.0796 25.5728 23.0419C26.0088 23.0048 26.3857 23.3187 26.4147 23.7439Z" fill="#263238"/>
<path d="M26.8479 21.3154C26.7533 21.4232 26.1377 20.9903 25.2846 21.0193C24.4321 21.0356 23.8206 21.501 23.7244 21.3978C23.6776 21.352 23.7712 21.1592 24.0373 20.9491C24.2988 20.7395 24.7505 20.5304 25.2821 20.5162C25.8137 20.503 26.2669 20.6876 26.5305 20.883C26.8001 21.0798 26.8947 21.267 26.8479 21.3154Z" fill="#263238"/>
<path d="M18.9372 24.1377C18.9657 24.5629 18.6355 24.9368 18.199 24.9745C17.7636 25.0121 17.3872 24.6983 17.3582 24.2735C17.3297 23.8487 17.6603 23.4738 18.0953 23.4367C18.5317 23.3985 18.9087 23.7124 18.9372 24.1377Z" fill="#263238"/>
<path d="M18.4671 21.7381C18.3719 21.8464 17.7559 21.4135 16.9038 21.442C16.0517 21.4583 15.4398 21.9238 15.3436 21.8205C15.2968 21.7747 15.3899 21.5824 15.657 21.3723C15.9185 21.1627 16.3702 20.9532 16.9013 20.9389C17.4329 20.9257 17.8861 21.1103 18.1496 21.3057C18.4177 21.502 18.5134 21.6892 18.4671 21.7381Z" fill="#263238"/>
<path d="M21.7737 28.0715C21.7681 28.0221 22.2951 27.9128 23.1507 27.7744C23.368 27.7449 23.5724 27.6945 23.6045 27.5419C23.6508 27.3802 23.5516 27.1446 23.4376 26.8903C23.2153 26.3607 22.9829 25.8062 22.7387 25.2243C21.7665 22.8517 21.0549 20.8982 21.149 20.8596C21.2431 20.8209 22.1079 22.7123 23.08 25.0849C23.3145 25.6704 23.5389 26.2279 23.7525 26.7616C23.8431 27.0108 23.9942 27.2916 23.8934 27.6269C23.84 27.7942 23.6844 27.9194 23.546 27.9616C23.4076 28.0094 23.285 28.0155 23.1777 28.0257C22.3149 28.1 21.7782 28.1208 21.7737 28.0715Z" fill="#263238"/>
<path d="M18.7665 20.1662C18.6118 20.3631 17.8396 19.9851 16.8517 19.7821C15.8679 19.5588 15.0082 19.5837 14.9492 19.3406C14.9252 19.2256 15.1292 19.0603 15.5113 18.9479C15.8903 18.8349 16.4488 18.7942 17.0399 18.9219C17.631 19.0506 18.1214 19.3182 18.419 19.5771C18.7197 19.8371 18.8362 20.0716 18.7665 20.1662Z" fill="#263238"/>
<path d="M26.8511 18.6615C26.7326 18.9031 25.9863 18.9153 25.1566 19.1559C24.3203 19.3721 23.6686 19.744 23.4479 19.5954C23.3482 19.5212 23.4005 19.2994 23.6524 19.0282C23.8996 18.7596 24.36 18.4615 24.9317 18.3043C25.5046 18.1477 26.0484 18.1695 26.3948 18.2759C26.7458 18.3812 26.9004 18.5465 26.8511 18.6615Z" fill="#263238"/>
<path d="M9.5328 24.9847C9.43665 24.946 5.6814 23.9566 5.92761 27.81C6.17382 31.6634 9.92908 30.6267 9.92857 30.5153C9.92857 30.4049 9.5328 24.9847 9.5328 24.9847Z" fill="#FFBF9D"/>
<path d="M8.67702 29.1296C8.65921 29.1184 8.61394 29.1805 8.50559 29.24C8.39978 29.2975 8.21512 29.3443 8.01265 29.2817C7.60263 29.1576 7.22416 28.5329 7.16108 27.8395C7.12903 27.4895 7.1799 27.1507 7.28469 26.8664C7.38237 26.5769 7.54922 26.3688 7.74863 26.3195C7.94601 26.2595 8.09659 26.3729 8.15 26.4787C8.20749 26.583 8.18866 26.6613 8.20901 26.6669C8.2202 26.6756 8.28634 26.5972 8.24564 26.4401C8.22529 26.3648 8.17493 26.2763 8.08082 26.2081C7.98467 26.1389 7.84885 26.1089 7.70947 26.1333C7.41849 26.1725 7.17278 26.4624 7.05781 26.7748C6.92657 27.0892 6.86145 27.4702 6.89757 27.8634C6.97184 28.6382 7.40933 29.3402 7.96738 29.4663C8.23852 29.5203 8.45573 29.4241 8.5651 29.3259C8.676 29.2227 8.69075 29.1357 8.67702 29.1296Z" fill="#FF9A6C"/>
<path d="M27.8487 13.2534C27.3187 12.1602 26.4096 11.301 25.4299 10.597C23.3187 9.07999 20.7564 8.17399 18.1742 8.21367C15.592 8.25335 13.0068 9.27534 11.1993 11.1458C9.75309 12.643 8.84149 14.6264 8.45539 16.6892C8.06928 18.7515 8.19035 20.8916 8.62173 22.9468C8.81097 23.8487 9.08466 24.7827 9.73275 25.4298C10.1377 25.8337 10.8183 26.087 11.2563 25.7223C11.5142 25.5071 11.5992 25.15 11.6689 24.8188C12.3027 21.82 12.9193 18.5968 11.7543 15.7629C12.4487 14.779 13.2647 13.8578 14.2892 13.2397C15.3137 12.6216 16.5708 12.3321 17.7214 12.6531C19.4307 13.1298 20.527 14.7704 21.9147 15.8921C23.8987 17.4955 26.666 18.0388 29.0895 17.3012L27.8487 13.2534Z" fill="#263238"/>
<path d="M31.7137 9.27381C31.7219 9.27229 31.7417 9.35978 31.7712 9.5302C31.786 9.70113 31.8083 9.96006 31.7463 10.2851C31.642 10.9266 31.2071 11.8652 30.2278 12.5341C29.2541 13.2137 27.7728 13.4101 26.2818 13.0693C24.7699 12.7488 23.2947 11.8962 21.7436 11.1158C20.2007 10.336 18.5876 9.76929 17.1032 9.93869C15.6203 10.0877 14.4269 10.864 13.6242 11.649C12.8087 12.443 12.328 13.2549 12.0416 13.8252C11.7618 14.4036 11.655 14.747 11.6306 14.7383C11.6224 14.7353 11.6443 14.6488 11.6942 14.485C11.7384 14.3192 11.8305 14.0841 11.9546 13.783C12.2186 13.1924 12.6831 12.3515 13.5026 11.5213C14.3084 10.7017 15.5303 9.87816 17.0793 9.70876C18.6319 9.52054 20.2959 10.1045 21.8515 10.8905C23.4152 11.678 24.8661 12.5214 26.3296 12.8434C27.7758 13.1863 29.1956 13.0118 30.1317 12.3851C31.0789 11.7655 31.5235 10.8783 31.6517 10.2648C31.789 9.63754 31.6812 9.27483 31.7137 9.27381Z" fill="#455A64"/>
<path d="M6.27074 19.1559C6.24479 19.1519 6.27278 18.7383 6.48745 18.1115C6.695 17.4858 7.11061 16.65 7.78007 15.8931C8.11124 15.5126 8.47496 15.1967 8.82545 14.9388C9.17697 14.6814 9.55087 14.5008 9.89272 14.4626C10.2336 14.4219 10.5103 14.5099 10.6715 14.6081C10.8343 14.7088 10.8913 14.8019 10.8806 14.8116C10.8674 14.8487 10.5383 14.5231 9.91917 14.6376C9.31839 14.7495 8.61129 15.3478 7.96371 16.0605C7.31867 16.7904 6.8939 17.581 6.65023 18.1751C6.39944 18.7693 6.31092 19.1656 6.27074 19.1559Z" fill="#E0E0E0"/>
<path d="M7.04748 22.5317C7.02153 22.5256 7.08309 22.1145 7.33032 21.4955C7.575 20.8779 8.03741 20.0645 8.73332 19.3248C9.43228 18.5872 10.2126 18.0846 10.8099 17.8104C11.4086 17.5337 11.81 17.4543 11.8171 17.4802C11.8303 17.5199 11.4518 17.6588 10.8887 17.9686C10.3251 18.2764 9.58846 18.7846 8.91137 19.4983C8.23785 20.2145 7.76831 20.9837 7.48903 21.5687C7.20772 22.1537 7.08716 22.5434 7.04748 22.5317Z" fill="#455A64"/>
<path d="M21.6003 30.5387C21.6146 30.5997 21.4091 30.7223 21.0342 30.7691C20.6628 30.8175 20.1241 30.759 19.5996 30.5046C19.0756 30.2487 18.6926 29.8586 18.4962 29.534C18.2963 29.2079 18.2607 28.9678 18.3172 28.9409C18.4428 28.8747 18.8951 29.6246 19.8112 30.0544C20.7147 30.5102 21.5724 30.3978 21.6003 30.5387Z" fill="#263238"/>
<path d="M20.888 174.141L21.5178 185.861C21.5178 185.861 32.5247 190.313 32.6335 192.486L11.2959 192.309L11.3417 174.035L20.888 174.141Z" fill="#263238"/>
<path d="M11.2939 192.308L11.3662 190.466L31.7973 191.325C31.7973 191.325 32.744 191.773 32.6316 192.485L11.2939 192.308Z" fill="#455A64"/>
<path d="M21.8549 185.748C21.8508 185.859 21.3294 185.905 20.8141 186.258C20.2901 186.596 20.022 187.075 19.9269 187.03C19.8313 187.008 19.9915 186.345 20.6223 185.93C21.249 185.509 21.8783 185.646 21.8549 185.748Z" fill="#455A64"/>
<path d="M24.1025 186.753C24.1259 186.861 23.6732 187.046 23.3156 187.512C22.9452 187.968 22.8526 188.475 22.7484 188.469C22.6502 188.486 22.583 187.835 23.0378 187.264C23.488 186.688 24.101 186.647 24.1025 186.753Z" fill="#455A64"/>
<path d="M25.339 189.617C25.2443 189.64 25.1029 189.084 25.3751 188.478C25.6432 187.87 26.1361 187.634 26.1793 187.728C26.2373 187.819 25.9189 188.143 25.7027 188.644C25.4758 189.14 25.4427 189.607 25.339 189.617Z" fill="#455A64"/>
<path d="M21.6899 183.067C21.6456 183.167 21.1684 183.01 20.5793 183.048C19.9892 183.073 19.5294 183.28 19.476 183.184C19.4165 183.103 19.8667 182.696 20.5615 182.662C21.2554 182.623 21.7417 182.98 21.6899 183.067Z" fill="#263238"/>
<path d="M14.4785 179.363L13.9983 191.07C13.9983 191.07 25.0051 195.522 25.114 197.695L3.77637 197.518L3.82216 179.244L14.4785 179.363Z" fill="#263238"/>
<path d="M3.77637 197.518L3.84861 195.676L24.2797 196.535C24.2797 196.535 25.2264 196.983 25.114 197.695L3.77637 197.518Z" fill="#455A64"/>
<path d="M14.3462 190.957C14.3421 191.068 13.8207 191.114 13.3053 191.467C12.7814 191.805 12.5138 192.284 12.4182 192.239C12.3225 192.217 12.4823 191.555 13.1136 191.139C13.7403 190.718 14.3696 190.856 14.3462 190.957Z" fill="#455A64"/>
<path d="M16.5771 191.962C16.6005 192.069 16.1478 192.255 15.7902 192.721C15.4198 193.176 15.3272 193.684 15.223 193.677C15.1248 193.694 15.0576 193.043 15.5124 192.472C15.9626 191.897 16.5756 191.856 16.5771 191.962Z" fill="#455A64"/>
<path d="M17.8233 194.827C17.7287 194.85 17.5873 194.294 17.8595 193.688C18.1275 193.08 18.6205 192.844 18.6637 192.937C18.7217 193.029 18.4033 193.353 18.1871 193.853C17.9602 194.349 17.9266 194.817 17.8233 194.827Z" fill="#455A64"/>
<path d="M14.1723 188.276C14.128 188.377 13.6508 188.22 13.0618 188.258C12.4717 188.283 12.0118 188.49 11.9584 188.394C11.8989 188.313 12.3491 187.906 13.044 187.872C13.7378 187.832 14.2242 188.19 14.1723 188.276Z" fill="#263238"/>
<path d="M31.8807 102.825C31.8807 103.688 31.2799 122.896 28.6219 133.47C25.9634 144.045 23.7943 153.972 23.9912 155.483C24.1885 156.994 21.8215 184.185 21.8215 184.185L11.3682 186.128L16.4964 140.161L19.6519 104.984L31.8807 102.825Z" fill="#263238"/>
<path d="M2.94344 104.983C2.95311 105.846 5.11103 129.369 5.11103 131.528C5.11103 133.686 1.22656 158.504 1.22656 161.525C1.22656 164.546 2.71758 191.522 2.94344 191.522C3.1688 191.522 16.765 191.522 16.765 191.522C16.765 191.522 18.1023 160.662 19.1599 156.561C20.2175 152.461 27.3394 131.096 28.2027 124.622C29.0659 118.147 30.2482 104.983 30.2482 104.983H2.94344Z" fill="#263238"/>
<path d="M2.94293 104.983C2.94293 104.983 3.09605 104.977 3.40534 104.974C3.72125 104.972 4.18163 104.969 4.78546 104.965C6.01144 104.96 7.81429 104.953 10.1492 104.944C14.8471 104.933 21.6806 104.916 30.2477 104.896H30.3433L30.3347 104.992C29.8956 109.84 29.3915 115.278 28.7271 121.202C28.6397 121.942 28.5516 122.69 28.4626 123.445C28.4148 123.822 28.3665 124.201 28.3176 124.582C28.2546 124.963 28.1915 125.345 28.1279 125.729C27.8395 127.258 27.4691 128.797 27.0637 130.354C26.2528 133.469 25.3224 136.666 24.3406 139.951C23.3573 143.237 22.3124 146.608 21.2431 150.062C20.71 151.79 20.1641 153.538 19.6442 155.312C19.512 155.755 19.3904 156.201 19.2739 156.648C19.1976 157.102 19.0852 157.547 19.0394 158.014C18.9127 158.937 18.815 159.871 18.726 160.811C18.0484 168.336 17.6572 176.195 17.2391 184.253C17.1216 186.745 17.0056 189.217 16.8967 191.529L16.8906 191.655H16.7644C13.2422 191.655 9.7667 191.654 6.34566 191.654C5.49052 191.654 4.63845 191.653 3.79043 191.653H3.15506H2.99634H2.95666C2.99889 191.685 2.79693 191.607 2.80711 191.539C2.79948 191.507 2.79032 191.47 2.78727 191.445C2.76845 191.333 2.75776 191.229 2.74606 191.123C2.7018 190.699 2.66823 190.279 2.63517 189.859C2.50647 188.18 2.40167 186.516 2.2984 184.867C1.895 178.27 1.5506 171.922 1.26827 165.883C1.20774 164.372 1.11871 162.886 1.11719 161.407C1.19502 159.921 1.39342 158.489 1.5674 157.068C1.92959 154.233 2.3162 151.488 2.6901 148.838C3.4379 143.536 4.16942 138.613 4.75342 134.116C4.82769 133.554 4.8928 132.998 4.9513 132.45C4.98742 132.174 4.9981 131.905 5.01794 131.635C5.02964 131.366 5.00624 131.096 4.9981 130.828C4.93451 129.754 4.8577 128.707 4.77936 127.69C4.61606 125.657 4.46193 123.741 4.31796 121.95C4.01783 118.372 3.7594 115.295 3.5488 112.779C3.34277 110.27 3.18304 108.324 3.07418 106.998C3.02636 106.342 2.98973 105.84 2.96481 105.496C2.94344 105.152 2.94293 104.983 2.94293 104.983C2.97396 105.327 3.1983 107.812 3.64596 112.77C3.86878 115.284 4.14144 118.36 4.45887 121.938C4.60894 123.728 4.76969 125.644 4.9401 127.677C5.0215 128.694 5.10188 129.741 5.16852 130.818C5.17716 131.089 5.20209 131.362 5.19089 131.637C5.17156 131.912 5.16037 132.193 5.12527 132.466C5.0683 133.018 5.0042 133.575 4.93146 134.137C4.35866 138.639 3.63833 143.564 2.89969 148.866C2.53037 151.517 2.14884 154.262 1.79072 157.095C1.61928 158.51 1.42292 159.956 1.34865 161.408C1.3517 162.869 1.44276 164.364 1.50533 165.871C1.79427 171.907 2.14477 178.255 2.55276 184.849C2.65704 186.497 2.76336 188.162 2.89257 189.838C2.92564 190.256 2.95921 190.676 3.00347 191.093C3.01517 191.196 3.02636 191.303 3.04264 191.399L3.05485 191.461C3.04518 191.474 2.87324 191.415 2.95616 191.393H2.99584H3.15455H3.78992C4.63793 191.393 5.49002 191.392 6.34515 191.392C9.76619 191.392 13.2417 191.391 16.7639 191.391L16.6322 191.517C16.7405 189.206 16.857 186.732 16.974 184.239C17.3922 176.178 17.7854 168.322 18.4681 160.786C18.5576 159.844 18.6558 158.908 18.7845 157.977C18.8303 157.512 18.9458 157.048 19.0251 156.586C19.1431 156.134 19.2657 155.684 19.399 155.24C19.9215 153.462 20.4683 151.716 21.003 149.988C22.0753 146.534 23.1227 143.165 24.1096 139.882C25.095 136.6 26.029 133.405 26.8429 130.296C27.2504 128.742 27.6217 127.207 27.9112 125.689C27.9748 125.309 28.0384 124.93 28.1014 124.553C28.1508 124.172 28.1996 123.794 28.2479 123.417C28.3385 122.663 28.428 121.915 28.5165 121.176C29.1916 115.257 29.7084 109.82 30.1607 104.974L30.2477 105.07C21.7035 105.05 14.8883 105.033 10.2022 105.022C7.85855 105.013 6.04908 105.005 4.81852 105.001C4.20808 104.997 3.7421 104.994 3.42264 104.992C3.10826 104.989 2.94293 104.983 2.94293 104.983Z" fill="#455A64"/>
<path d="M10.1378 36.5918L8.99881 40.7682C8.99881 40.7682 2.16486 45.3242 2.73461 58.6121C3.30385 71.9 7.29058 82.7206 7.29058 82.7206L1.33008 105.242L34.0566 112.524C37.0941 111.195 35.7653 81.7719 34.0566 72.2805C32.3484 62.789 29.872 54.8161 28.6424 53.1079C27.4129 51.3997 20.7687 43.237 17.5415 40.7692C14.3138 38.3 10.1378 36.5918 10.1378 36.5918Z" fill="#455A64"/>
<path d="M27.3593 52.7004L24.5304 46.5054L24.1789 42.6789C24.1789 42.6789 18.7541 39.2696 16.1805 37.9825C13.607 36.6955 10.1396 35.5311 10.1396 35.5311V39.1414L27.3593 52.7004Z" fill="#EBEBEB"/>
<path d="M6.58387 82.101C6.58387 82.101 2.83828 60.1463 2.734 58.6115C2.734 58.6115 1.16464 51.1229 3.12366 46.9215C5.08268 42.7201 9.46671 39.0274 9.46671 39.0274L9.87011 36.8217L18.4331 42.2185L22.3914 45.6614C22.3914 45.6614 24.6383 48.0335 26.1263 50.3085C27.25 51.8631 29.8449 54.7729 30.4004 57.2879C30.6034 58.2071 34.3917 67.2972 34.4619 74.9593C34.4619 74.9593 34.3434 81.8802 34.7295 85.667C35.2072 90.3532 34.8541 105.374 34.6959 111.704L5.73281 107.276C-1.12403 106.23 0.0816065 105.548 0.0816065 105.548L6.58387 82.101Z" fill="#455A64"/>
<path d="M10.1396 39.1414C10.1396 39.1414 10.2043 39.1744 10.3319 39.2294C10.4673 39.2858 10.656 39.3647 10.8981 39.4659C11.1403 39.5824 11.4343 39.736 11.7797 39.9156C12.1114 40.1211 12.5067 40.3328 12.9157 40.6248C14.5801 41.7419 16.7767 43.6348 19.012 46.2597L19.0277 46.278L19.0506 46.2821C19.8956 46.4372 20.7884 46.6015 21.7127 46.7714L21.6552 46.7048C21.6969 47.9415 21.7407 49.2397 21.7859 50.5832L21.787 50.6137L21.8099 50.6356C23.1432 51.8982 24.4978 53.3271 25.7243 54.9265C26.2218 55.5817 26.6802 56.2557 27.0663 56.9552L27.2113 57.2167L27.3222 57.4898C27.3975 57.6704 27.4697 57.852 27.5231 58.0433C27.6416 58.4192 27.7586 58.7926 27.8558 59.1696C28.2663 60.6693 28.6056 62.1328 28.9231 63.5272C29.5549 66.3174 30.0809 68.8401 30.5173 70.9593C31.3883 75.1989 31.8786 77.8299 31.8786 77.8299C31.8786 77.8299 31.872 77.6615 31.8191 77.3471C31.7708 77.0323 31.6899 76.5693 31.5841 75.9731C31.3689 74.7823 31.0444 73.0608 30.6232 70.938C30.2004 68.8151 29.6851 66.2899 29.0604 63.4961C28.7465 62.0997 28.4103 60.6352 28.0003 59.1299C27.9041 58.7525 27.7866 58.376 27.6671 57.9965C27.6142 57.8052 27.5404 57.6175 27.4621 57.4298L27.3471 57.1475L27.2006 56.8825C26.8099 56.1733 26.3475 55.4942 25.8469 54.8344C24.6118 53.2244 23.2546 51.7949 21.9111 50.5267L21.935 50.5786C21.8867 49.2351 21.8399 47.9374 21.7956 46.7007L21.7936 46.6443L21.7381 46.6341C20.8133 46.4672 19.9195 46.306 19.0745 46.1534L19.1132 46.1763C16.8566 43.5478 14.6432 41.6656 12.9579 40.5612C12.5438 40.2732 12.1434 40.0647 11.8077 39.8642C11.4577 39.6892 11.1596 39.5407 10.9139 39.4293C10.6677 39.3357 10.4759 39.2624 10.3386 39.21C10.2088 39.1617 10.1396 39.1414 10.1396 39.1414Z" fill="#263238"/>
<path d="M6.58428 46.4047C6.59954 46.4311 6.96479 46.1971 7.61034 45.9499C7.93184 45.8232 8.32812 45.7093 8.77425 45.6182C9.22242 45.5363 9.72197 45.4824 10.248 45.4865C10.774 45.4971 11.272 45.5643 11.7176 45.6589C12.1612 45.7622 12.5544 45.8873 12.8719 46.0226C13.5103 46.2877 13.8689 46.5313 13.8847 46.5059C13.8908 46.4973 13.8043 46.4326 13.642 46.3228C13.5617 46.2663 13.461 46.2012 13.3373 46.1376C13.2142 46.0725 13.0779 45.9896 12.9151 45.9234C12.5977 45.7734 12.2009 45.635 11.7497 45.5216C11.2964 45.4178 10.7877 45.3445 10.2505 45.3333C9.71282 45.3293 9.20258 45.3888 8.74678 45.4798C8.29251 45.5806 7.89216 45.7077 7.57066 45.8492C7.40584 45.9107 7.26747 45.9896 7.14283 46.0516C7.01718 46.1122 6.91494 46.1742 6.83304 46.2287C6.66669 46.3335 6.57818 46.3955 6.58428 46.4047Z" fill="#263238"/>
<path d="M10.5597 37.1396C10.5566 37.1442 10.6075 37.1829 10.7067 37.2521C10.8202 37.3289 10.9656 37.4276 11.1447 37.5492C11.5451 37.8122 12.0965 38.1749 12.7705 38.6179C14.1659 39.5168 16.0654 40.7413 18.1648 42.0939C18.9772 42.6123 19.7601 43.1113 20.4922 43.5778L20.4871 43.5742C20.7414 43.7711 20.9897 43.9629 21.2303 44.1496C21.4775 44.3307 21.6892 44.5154 21.8942 44.7168C22.3016 45.1105 22.6643 45.4931 22.9904 45.84L23.0494 45.9026L23.083 45.8248C23.4355 45.0103 23.7235 44.3449 23.932 43.8632C24.0241 43.6424 24.0979 43.4644 24.1553 43.326C24.2047 43.2024 24.2286 43.1363 24.2235 43.1342C24.2184 43.1317 24.1849 43.1937 24.1258 43.3128C24.0612 43.4481 23.9783 43.6221 23.8751 43.8378C23.6553 44.3144 23.3521 44.9732 22.9808 45.779L23.0733 45.7637C22.7518 45.4102 22.3932 45.0225 21.9867 44.6217C21.7883 44.4218 21.5564 44.2173 21.3142 44.0372C21.0751 43.85 20.8294 43.6572 20.5771 43.4593L20.5746 43.4572L20.572 43.4552C19.841 42.9862 19.0591 42.4851 18.2478 41.9647C16.1392 40.6263 14.2305 39.4156 12.8285 38.5259C12.1438 38.1001 11.5837 37.7516 11.1768 37.4983C10.9911 37.3869 10.841 37.2963 10.7235 37.2256C10.6187 37.1651 10.5622 37.1351 10.5597 37.1396Z" fill="#263238"/>
<path d="M54.1392 68.7928C54.1392 68.7928 55.1281 68.2831 56.0015 68.4744C56.875 68.6656 60.0463 70.7335 60.0463 70.7335L62.6015 70.2564L64.1073 77.4713L54.1387 81.6142L54.1392 68.7928Z" fill="#E5967A"/>
<path d="M46.7667 71.3083C46.7667 71.3083 49.0502 71.0199 49.8774 70.6063C50.7045 70.1927 52.6768 68.4428 53.0904 68.4749C53.5039 68.5069 54.999 68.7928 54.999 68.7928L54.3947 70.6063C54.3947 70.6063 57.3854 72.4199 58.2761 73.0878C59.1668 73.7562 61.9668 76.7464 62.0939 77.4779C62.2211 78.2099 61.9983 79.0686 61.6483 79.355C61.2983 79.6414 60.0255 79.0686 60.0255 79.0686C60.0255 79.0686 60.2163 79.7366 59.7391 80.373C59.262 81.0093 58.1484 80.7865 58.1484 80.7865C58.1484 80.7865 58.0528 81.8365 57.5441 82.0273C57.0349 82.218 55.8898 81.6452 55.8898 81.6452C55.8898 81.6452 55.5444 82.536 55.1282 82.6316C54.7126 82.7272 53.5355 82.0273 53.5355 82.0273C53.5355 82.0273 48.4454 78.3687 47.2998 77.8279C46.1547 77.2872 45.8047 77.2551 45.8047 77.2551L46.7667 71.3083Z" fill="#FFBF9D"/>
<path d="M55.8895 81.6457C55.8666 81.6452 55.8523 81.5557 55.7984 81.4224C55.7455 81.2886 55.6555 81.1085 55.5425 80.9142C55.3162 80.5266 55.1122 80.2158 55.1488 80.1888C55.1798 80.1649 55.4403 80.436 55.6753 80.8374C55.7923 81.0378 55.8727 81.2378 55.9027 81.3919C55.9332 81.547 55.9088 81.6473 55.8895 81.6457Z" fill="#FF9A6C"/>
<path d="M58.0047 81.0272C57.963 81.0485 57.7147 80.5917 57.3627 80.0662C57.0147 79.5361 56.6419 79.1826 56.6683 79.15C56.6922 79.1149 57.1302 79.4344 57.4894 79.9807C57.8511 80.5205 58.0388 81.0109 58.0047 81.0272Z" fill="#FF9A6C"/>
<path d="M60.0486 79.1907C60.0033 79.2019 59.8614 78.6515 59.5099 78.0578C59.1639 77.4606 58.7529 77.0674 58.785 77.0338C58.8068 77.0023 59.281 77.3584 59.6421 77.9805C60.0079 78.5996 60.0867 79.1872 60.0486 79.1907Z" fill="#FF9A6C"/>
<path d="M58.5562 75.2203C58.5964 75.2122 58.7057 75.5907 58.7261 76.0734C58.7485 76.5562 58.6732 76.9428 58.6325 76.9382C58.5887 76.9341 58.5948 76.5501 58.573 76.08C58.5531 75.61 58.5134 75.2285 58.5562 75.2203Z" fill="#FF9A6C"/>
<path d="M51.1504 72.3558C51.1504 72.3558 51.946 69.8107 52.2319 69.4928C52.5183 69.1748 55.1788 68.4743 55.1788 68.4743L56.0034 70.6063L55.4133 71.2305L54.1411 71.1471C54.1411 71.1471 53.346 73.2465 51.1504 72.3558Z" fill="#E5967A"/>
<path d="M46.2671 77.3889C46.2671 77.3889 45.9034 77.6692 46.2671 78.3371C46.6308 79.0051 47.6172 78.5279 47.9352 78.3371C47.9352 78.3371 47.458 79.4507 48.0623 79.8007C48.6667 80.1507 49.3987 80.0555 49.3987 80.0555C49.3987 80.0555 49.3672 80.7235 50.2259 81.1691C51.0851 81.6147 51.3074 81.1691 51.3074 81.1691C51.3074 81.1691 51.403 82.2827 52.3889 82.3778C53.3753 82.4734 53.7222 82.1346 53.7222 82.1346L53.2796 81.4769C53.2796 81.4769 53.8524 80.3099 53.4068 79.8007C52.9612 79.2915 52.2297 79.3556 52.2297 79.3556C52.2297 79.3556 52.4245 78.3219 51.8568 78.0339C50.8027 77.4988 50.3525 78.4969 50.3525 78.4969C50.3525 78.4969 50.2889 77.364 49.4618 77.3894C48.6346 77.4149 48.189 77.9241 48.189 77.9241L46.2671 77.3889Z" fill="#E5967A"/>
<path d="M50.3542 78.4958C50.3913 78.5142 50.2356 78.9018 49.9747 79.3444C49.7147 79.7869 49.4517 80.1115 49.4171 80.0881C49.3815 80.0637 49.5855 79.7045 49.8424 79.2665C50.1003 78.8295 50.316 78.477 50.3542 78.4958Z" fill="#CC7E66"/>
<path d="M52.2508 79.4985C52.2879 79.5158 52.1257 79.9294 51.8174 80.3786C51.5106 80.8288 51.1835 81.1299 51.154 81.1019C51.1215 81.0724 51.3911 80.7321 51.6907 80.2921C51.9919 79.8536 52.2111 79.4787 52.2508 79.4985Z" fill="#CC7E66"/>
<g opacity="0.3">
<path d="M33.0246 79.3606C32.812 78.8194 32.1237 78.6835 31.5458 78.6189C26.1449 78.0197 20.5232 76.6716 16.5787 72.9347C15.0353 71.4726 13.8185 69.7059 12.6459 67.9326C10.0826 64.0562 7.67231 60.0812 5.26309 56.1072L3.39258 56.8148C4.54022 62.4258 5.66904 66.4883 7.53751 71.087C9.40802 75.6913 10.8573 80.1486 15.5928 81.6549C18.6542 82.6285 24.4682 81.8823 27.671 81.6315C29.0084 81.5267 30.3545 81.3975 31.6384 81.0098C32.0266 80.8928 32.4198 80.7448 32.7123 80.464C33.0048 80.1832 33.1727 79.7381 33.0246 79.3606Z" fill="black"/>
</g>
<path d="M2.73386 55.3482C2.87375 55.597 13.6817 78.6815 18.5073 79.6307C23.3328 80.58 38.33 80.8018 41.2571 80.2478C44.1842 79.6943 47.0476 79.1785 47.0476 79.1785C47.0476 79.1785 49.1669 74.1444 47.2323 69.8555L43.2039 69.9826C43.2039 69.9826 32.0032 69.3783 30.4206 68.9459C28.8386 68.513 27.4717 67.0296 26.0478 67.1085L17.527 47.2786C17.527 47.2786 11.9897 42.1366 8.03405 43.7187C4.07836 45.3018 1.57452 53.2864 2.73386 55.3482Z" fill="#455A64"/>
<path d="M17.527 47.2796C17.527 47.2796 17.5845 47.3977 17.6878 47.6312C17.792 47.8687 17.9441 48.2146 18.1425 48.6669C18.5393 49.5815 19.1213 50.9209 19.8665 52.6368C21.353 56.0807 23.4911 61.033 26.1038 67.085L26.0448 67.0484C26.7173 67.0169 27.3496 67.3094 27.9341 67.6268C28.5222 67.9509 29.0914 68.3278 29.7161 68.6132C30.3331 68.9266 31.0336 68.9993 31.7433 69.0848C32.4529 69.1687 33.1773 69.2313 33.9114 69.2949C36.8507 69.538 39.9655 69.7293 43.2085 69.9099H43.2024C44.4696 69.8692 45.84 69.8254 47.2308 69.7812L47.2812 69.7797L47.301 69.8254C47.9221 71.2478 48.1826 72.8471 48.1078 74.4485C48.0386 76.0515 47.7105 77.6646 47.1189 79.2085L47.1046 79.2461L47.0619 79.2543C46.2505 79.4044 45.3781 79.5651 44.5006 79.7274C43.56 79.9008 42.6255 80.0733 41.6966 80.2452C40.7667 80.4263 39.819 80.496 38.8901 80.5342C37.0267 80.6191 35.1898 80.6263 33.3859 80.6166C31.5815 80.6064 29.8097 80.5647 28.075 80.5006C26.3403 80.4396 24.6433 80.3495 22.9895 80.2234C22.1623 80.1644 21.3469 80.0845 20.5431 79.9965C19.7394 79.8907 18.9504 79.8189 18.1746 79.6033C17.7961 79.4623 17.4604 79.2456 17.149 79.0116C16.8362 78.7771 16.5503 78.5162 16.2776 78.2476C15.7313 77.7109 15.2429 77.1376 14.782 76.5612C12.9548 74.2385 11.5223 71.8852 10.2418 69.7313C7.7085 65.4023 5.8797 61.7772 4.62422 59.2708C4.00004 58.0159 3.52744 57.0351 3.21001 56.3692C2.89309 55.7028 2.73438 55.3492 2.73438 55.3492C2.73438 55.3492 2.7822 55.4337 2.86664 55.6031C2.95211 55.776 3.07572 56.0273 3.238 56.356C3.56865 57.0198 4.05396 57.9925 4.67763 59.2444C5.94889 61.7411 7.79192 65.358 10.3349 69.6764C11.6199 71.8241 13.0565 74.1723 14.8812 76.4818C15.3411 77.0552 15.8279 77.6239 16.3697 78.1545C16.6398 78.4195 16.9227 78.6769 17.2294 78.9058C17.5346 79.1347 17.8622 79.3443 18.2209 79.4771C18.956 79.6806 19.7653 79.7574 20.5594 79.8602C21.3606 79.9466 22.1745 80.025 23.0007 80.0835C24.6519 80.2076 26.3474 80.2956 28.0806 80.3556C29.8138 80.4182 31.5841 80.4589 33.3869 80.4675C35.1892 80.4757 37.0247 80.4681 38.8829 80.3826C39.8144 80.3434 40.7433 80.2758 41.6686 80.0957C42.5975 79.9242 43.5325 79.7513 44.4731 79.5778C45.3506 79.416 46.2236 79.2548 47.035 79.1047L46.978 79.1505C47.5599 77.633 47.8886 76.026 47.9562 74.444C48.031 72.8604 47.7741 71.2854 47.1652 69.8885L47.2359 69.9323C45.8451 69.9755 44.4746 70.0182 43.2075 70.0579H43.2044H43.2014C39.9568 69.8743 36.8425 69.6794 33.9007 69.4322C33.1656 69.3671 32.4407 69.304 31.7285 69.2186C31.3719 69.1784 31.0194 69.1321 30.6689 69.0659C30.3138 69.0125 29.9811 68.8742 29.6632 68.7327C29.0268 68.4402 28.4565 68.0607 27.8746 67.7387C27.2972 67.4228 26.6837 67.1425 26.0529 67.1715L26.0102 67.1736L25.9939 67.1349C23.4015 61.0742 21.2802 56.1148 19.805 52.6658C19.073 50.9438 18.5012 49.5998 18.111 48.6826C17.9197 48.2273 17.7727 47.8784 17.6725 47.6398C17.5728 47.4022 17.527 47.2796 17.527 47.2796Z" fill="#263238"/>
<path d="M26.0147 67.1263C26.0544 67.141 25.8102 67.8908 25.4694 68.8009C25.1285 69.711 24.8203 70.4369 24.7806 70.4222C24.7409 70.4074 24.9851 69.6576 25.3259 68.7475C25.6673 67.8374 25.9755 67.1115 26.0147 67.1263Z" fill="#263238"/>
<path d="M18.8776 28.1C18.875 28.1773 18.3353 28.1819 17.7981 28.5176C17.2528 28.8406 17.0015 29.3183 16.9318 29.2847C16.8611 29.2736 17.0345 28.6672 17.6607 28.2912C18.2814 27.9082 18.8999 28.0323 18.8776 28.1Z" fill="#FF9A6C"/>
<path d="M84.0522 13.9814C82.812 14.1564 81.5026 13.3709 81.0727 12.1943C80.9435 11.8402 80.8891 11.444 81.0086 11.0868C81.1287 10.7297 81.4522 10.426 81.8287 10.4093C81.3261 10.0638 80.9455 9.52411 80.8514 8.92129C80.7578 8.31848 80.9745 7.66225 81.4492 7.27868C81.9238 6.89512 82.6502 6.83204 83.1543 7.17542C83.1421 6.51664 83.5455 5.86804 84.1412 5.58673L86.8267 6.20633L84.0522 13.9814Z" fill="#263238"/>
<path d="M88.1246 41.9729L88.0895 34.1673C88.0895 34.1673 82.4729 33.2476 82.4485 27.6248C82.4368 24.9089 82.8676 19.3146 83.3163 14.2566C83.7986 8.81802 88.3769 4.66242 93.8368 4.70667L94.3791 4.71074C100.226 5.09939 103.162 10.2821 102.612 16.1164L100.839 37.9439L93.5204 43.9319L88.1246 41.9729Z" fill="#E5967A"/>
<path d="M88.0889 34.1673C88.0889 34.1673 91.631 34.4939 95.433 32.6681C95.433 32.6681 93.7014 36.1543 88.095 35.6029L88.0889 34.1673Z" fill="#CC7E66"/>
<path d="M84.82 19.7343C84.8017 20.1581 85.1456 20.5233 85.5877 20.5508C86.0292 20.5778 86.4026 20.2573 86.4209 19.8335C86.4392 19.4098 86.0959 19.044 85.6543 19.0165C85.2117 18.9891 84.8383 19.3106 84.82 19.7343Z" fill="#263238"/>
<path d="M84.5028 17.0173C84.6015 17.1226 85.2129 16.6775 86.0772 16.6867C86.9405 16.6836 87.5708 17.1333 87.6654 17.028C87.7117 16.9817 87.612 16.7915 87.3378 16.5885C87.0677 16.386 86.6058 16.1876 86.0671 16.1856C85.5288 16.1841 85.0746 16.3789 84.8126 16.5793C84.5455 16.7813 84.454 16.97 84.5028 17.0173Z" fill="#263238"/>
<path d="M92.2634 19.7343C92.2451 20.1581 92.589 20.5233 93.031 20.5503C93.4726 20.5778 93.846 20.2573 93.8643 19.833C93.8826 19.4093 93.5387 19.044 93.0972 19.0165C92.6551 18.9891 92.2817 19.3101 92.2634 19.7343Z" fill="#263238"/>
<path d="M92.9947 17.2462C93.0934 17.3515 93.7064 16.9069 94.5697 16.9156C95.4324 16.9125 96.0632 17.3622 96.1579 17.2569C96.2041 17.2106 96.1055 17.0204 95.8297 16.8174C95.5596 16.6149 95.0977 16.4165 94.5595 16.4145C94.0213 16.413 93.567 16.6078 93.305 16.8082C93.0385 17.0107 92.9464 17.1989 92.9947 17.2462Z" fill="#263238"/>
<path d="M89.8076 23.629C89.8122 23.5796 89.2755 23.4825 88.4066 23.3644C88.1864 23.34 87.9778 23.2947 87.9417 23.1437C87.8908 22.9839 87.9854 22.7469 88.0943 22.491C88.3059 21.9589 88.5277 21.4008 88.7602 20.8163C89.6855 18.4315 90.357 16.47 90.2609 16.4338C90.1642 16.3977 89.3361 18.3008 88.4112 20.6856C88.1884 21.2737 87.9753 21.8343 87.7723 22.3709C87.6868 22.6212 87.5408 22.9046 87.6507 23.2357C87.7087 23.4011 87.87 23.5221 88.0109 23.5613C88.1518 23.6056 88.2759 23.6091 88.3853 23.6162C89.2608 23.6697 89.8036 23.6778 89.8076 23.629Z" fill="#263238"/>
<path d="M92.3457 24.2471C92.2053 24.2379 92.1962 25.1754 91.3878 25.8347C90.581 26.496 89.5824 26.3826 89.5738 26.5138C89.5605 26.5729 89.7951 26.698 90.2168 26.7127C90.6304 26.73 91.2362 26.6024 91.7307 26.199C92.2236 25.7945 92.4383 25.2517 92.4734 24.8672C92.5126 24.4755 92.4098 24.242 92.3457 24.2471Z" fill="#263238"/>
<path d="M92.7993 13.8583C92.8827 14.0938 93.7465 13.9895 94.7588 14.1197C95.7742 14.2296 96.5891 14.5328 96.7255 14.3232C96.7865 14.223 96.6456 14.0007 96.317 13.7708C95.9914 13.5413 95.4705 13.3211 94.8621 13.2483C94.2542 13.1771 93.6961 13.2692 93.3258 13.4162C92.9524 13.5637 92.7632 13.7469 92.7993 13.8583Z" fill="#263238"/>
<path d="M84.8409 14.5191C84.9915 14.7165 85.5882 14.5176 86.3039 14.514C87.0197 14.485 87.6245 14.6564 87.766 14.4524C87.828 14.3532 87.7339 14.1559 87.4709 13.9682C87.2115 13.7809 86.776 13.6263 86.2841 13.637C85.7922 13.6487 85.3644 13.8232 85.1141 14.0221C84.8592 14.2215 84.7748 14.4229 84.8409 14.5191Z" fill="#263238"/>
<path d="M83.8779 11.682C83.8779 11.682 85.3892 8.17298 87.0934 7.36465C89.1567 6.38641 90.0235 8.64964 91.9866 8.11805C93.9497 7.58594 95.9199 6.64738 97.9095 8.17756C100.087 9.85273 99.0515 11.007 99.167 13.5027C99.6345 23.6213 101.459 26.4965 102.022 21.7366C102.084 21.2152 103.536 20.8118 103.768 18.608C104.069 15.7507 104.207 12.2798 103.586 10.2449C103.062 8.5301 102.096 7.34074 100.357 6.0237C97.6134 3.94463 93.8215 3.87036 91.2444 4.10894C88.6673 4.34803 83.6785 7.27156 83.8779 11.682Z" fill="#263238"/>
<path d="M101.665 21.5814C101.707 20.7141 102.461 20.035 103.325 20.124C104.373 20.2318 105.534 20.8372 105.448 23.0033C105.294 26.8465 101.468 25.8993 101.466 25.7889C101.464 25.7131 101.587 23.1889 101.665 21.5814Z" fill="#E5967A"/>
<path d="M102.359 24.3763C102.377 24.3646 102.424 24.4256 102.535 24.4821C102.644 24.537 102.832 24.5792 103.035 24.5121C103.447 24.3793 103.815 23.7485 103.861 23.0567C103.885 22.7072 103.825 22.3714 103.712 22.0906C103.606 21.8047 103.432 21.6013 103.229 21.5565C103.028 21.5016 102.878 21.6181 102.827 21.7239C102.771 21.8292 102.792 21.907 102.772 21.9126C102.761 21.9217 102.692 21.8449 102.729 21.6872C102.748 21.6114 102.797 21.5229 102.89 21.4527C102.985 21.381 103.122 21.3484 103.264 21.3698C103.559 21.4024 103.815 21.6857 103.939 21.9935C104.08 22.3038 104.156 22.6812 104.129 23.074C104.073 23.8472 103.648 24.5563 103.086 24.6947C102.813 24.7547 102.59 24.6637 102.477 24.5685C102.363 24.4693 102.346 24.3824 102.359 24.3763Z" fill="#CC7E66"/>
<path d="M89.1464 11.0151C89.1366 11.0151 89.1284 11.0182 89.1187 11.0182C89.0956 11.0197 89.0719 11.0197 89.0488 11.0218L89.1464 11.0151Z" fill="#FF725E"/>
<path d="M82.1641 4.25188C82.5171 3.28077 83.4536 2.60012 84.4573 2.35543C85.461 2.11024 86.5227 2.2486 87.5182 2.52687C87.4678 1.12945 89.0352 0.118657 90.43 0.215311C91.8249 0.311965 93.0376 1.16405 94.169 1.98561C95.9022 1.00177 98.4075 1.86046 99.1731 3.70045C100.205 3.1775 101.515 3.24923 102.483 3.88256C103.452 4.5159 104.043 5.68592 103.978 6.8417C104.88 7.04925 105.641 7.78281 105.882 8.6766C106.123 9.5709 105.832 10.5873 105.156 11.2191C105.784 11.6505 106.085 12.5061 105.865 13.2356C105.644 13.9651 104.92 14.5114 104.158 14.5226L101.467 11.9542C99.9352 12.1699 98.3714 10.834 98.3455 9.28705C97.1648 9.69706 95.7521 9.31859 94.9346 8.37341C94.6538 9.08051 94.0047 9.62941 93.261 9.78863C92.5167 9.94785 91.7003 9.71283 91.1544 9.18276C91.0201 10.2114 90.2484 11.1296 89.258 11.4384C88.2675 11.7471 87.1107 11.4307 86.4153 10.6605C85.4234 11.4267 83.8453 11.2781 83.0141 10.3401C82.1824 9.40201 82.2241 7.81791 83.1031 6.92462C82.1798 6.4617 81.8115 5.223 82.1641 4.25188Z" fill="#263238"/>
<path d="M98.5181 9.93514C98.5043 9.93819 98.5079 10.0552 98.5791 10.2551C98.6509 10.4525 98.7999 10.7369 99.0924 10.9993C99.3783 11.2593 99.8285 11.4974 100.372 11.4958C100.904 11.4989 101.514 11.2751 101.935 10.7816L101.713 10.7664C101.892 11.0512 102.143 11.3046 102.442 11.4948C103.081 11.8987 103.859 11.9867 104.484 11.7787C105.117 11.5752 105.542 11.1148 105.778 10.6977C106.018 10.2719 106.078 9.87155 106.08 9.60549C106.078 9.33639 106.029 9.19446 106.015 9.197C105.958 9.18836 106.092 9.81559 105.609 10.5959C105.37 10.9693 104.967 11.3682 104.407 11.5325C103.854 11.7039 103.16 11.6184 102.591 11.2588C102.325 11.0894 102.105 10.8676 101.945 10.6209L101.842 10.4622L101.723 10.6056C101.369 11.0319 100.837 11.244 100.368 11.2552C99.8921 11.2725 99.4851 11.0828 99.2069 10.8625C98.6417 10.4021 98.5618 9.91225 98.5181 9.93514Z" fill="#455A64"/>
<path d="M90.8978 177.009L90.268 188.729C90.268 188.729 79.2612 193.181 79.1523 195.354L100.49 195.177L100.444 176.902L90.8978 177.009Z" fill="#263238"/>
<path d="M100.489 195.176L100.417 193.334L79.9861 194.193C79.9861 194.193 79.0394 194.641 79.1519 195.353L100.489 195.176Z" fill="#455A64"/>
<path d="M89.9166 188.615C89.9207 188.726 90.4421 188.773 90.9575 189.125C91.4814 189.463 91.749 189.943 91.8446 189.897C91.9403 189.875 91.78 189.213 91.1492 188.797C90.5225 188.376 89.8932 188.514 89.9166 188.615Z" fill="#455A64"/>
<path d="M87.6845 189.62C87.6611 189.728 88.1138 189.913 88.4714 190.38C88.8418 190.835 88.9343 191.342 89.0386 191.337C89.1368 191.353 89.204 190.702 88.7492 190.132C88.2995 189.556 87.686 189.514 87.6845 189.62Z" fill="#455A64"/>
<path d="M86.442 192.485C86.5367 192.508 86.6781 191.952 86.4059 191.346C86.1378 190.738 85.6449 190.502 85.6017 190.595C85.5437 190.687 85.8621 191.011 86.0783 191.511C86.3052 192.007 86.3388 192.475 86.442 192.485Z" fill="#455A64"/>
<path d="M90.0927 185.934C90.1369 186.035 90.6141 185.878 91.2032 185.915C91.7932 185.94 92.2531 186.147 92.3065 186.052C92.3661 185.971 91.9158 185.564 91.221 185.53C90.5271 185.49 90.0408 185.848 90.0927 185.934Z" fill="#263238"/>
<path d="M97.3171 180.774L97.7973 192.482C97.7973 192.482 86.7905 196.934 86.6816 199.107L108.019 198.93L107.973 180.655L97.3171 180.774Z" fill="#263238"/>
<path d="M108.015 198.93L107.943 197.088L87.5115 197.947C87.5115 197.947 86.5648 198.395 86.6772 199.107L108.015 198.93Z" fill="#455A64"/>
<path d="M97.4518 192.369C97.4559 192.48 97.9773 192.527 98.4926 192.879C99.0166 193.217 99.2847 193.697 99.3798 193.651C99.4754 193.629 99.3157 192.967 98.6844 192.551C98.0572 192.13 97.4284 192.268 97.4518 192.369Z" fill="#455A64"/>
<path d="M95.2304 193.374C95.207 193.482 95.6597 193.667 96.0173 194.134C96.3877 194.589 96.4802 195.096 96.5845 195.091C96.6827 195.107 96.7499 194.456 96.2951 193.886C95.8449 193.31 95.2314 193.269 95.2304 193.374Z" fill="#455A64"/>
<path d="M93.9674 196.239C94.0621 196.261 94.2035 195.705 93.9313 195.1C93.6632 194.492 93.1703 194.256 93.1271 194.349C93.0691 194.44 93.3875 194.764 93.6037 195.265C93.8306 195.761 93.8637 196.228 93.9674 196.239Z" fill="#455A64"/>
<path d="M97.617 189.688C97.6613 189.789 98.1384 189.631 98.7275 189.669C99.3176 189.694 99.7775 189.901 99.8309 189.805C99.8904 189.725 99.4402 189.318 98.7453 189.284C98.0519 189.244 97.5656 189.601 97.617 189.688Z" fill="#263238"/>
<path d="M79.0928 101.927C79.3044 102.773 86.4553 146.168 89.2231 149.843C91.991 153.518 89.7756 188.067 89.7756 188.067L99.4023 189.882L102.562 147.175L96.4554 97.6984L79.0928 101.927Z" fill="#263238"/>
<path d="M82.1221 104.344C82.1221 105.393 84.0445 147.265 89.4408 154.272C89.4408 154.272 90.827 157.803 90.827 160.949C90.827 164.094 95.3316 192.155 95.3316 192.155H108.072C108.072 192.155 107.548 159.914 106.762 151.264C105.975 142.614 103.616 141.303 104.14 135.012C104.664 128.721 109.383 110.897 109.907 103.82C110.431 96.742 108.597 90.4514 108.597 90.4514L82.1221 104.344Z" fill="#263238"/>
<path d="M82.1223 104.344C82.1223 104.344 82.2698 104.259 82.5689 104.097C82.8741 103.935 83.3203 103.696 83.9058 103.384C85.0931 102.755 86.8405 101.83 89.1027 100.631C93.6516 98.2325 100.267 94.7438 108.556 90.3736L108.653 90.3222L108.681 90.427C109.368 92.9883 109.823 95.7669 110.02 98.7148C110.112 100.189 110.129 101.705 110.041 103.252C109.951 104.799 109.739 106.372 109.469 107.964C108.402 114.336 106.77 121.134 105.327 128.405C104.978 130.224 104.625 132.072 104.382 133.956C104.146 135.837 104.097 137.776 104.462 139.685C104.821 141.593 105.5 143.464 105.95 145.421C106.425 147.371 106.726 149.384 106.904 151.424C107.226 155.504 107.369 159.669 107.522 163.903C107.666 168.137 107.784 172.44 107.89 176.799C107.997 182.005 108.101 187.132 108.204 192.152L108.207 192.286H108.072C103.741 192.285 99.4905 192.284 95.3318 192.283H95.2219L95.2046 192.175C94.1058 185.275 93.0732 178.62 92.1397 172.268C91.6808 169.092 91.2276 165.994 90.8812 162.966C90.842 162.586 90.8028 162.208 90.7642 161.832C90.7453 161.453 90.7123 161.065 90.7067 160.697C90.6904 159.955 90.6049 159.218 90.4813 158.494C90.2275 157.048 89.8327 155.643 89.3398 154.312L89.355 154.338C89.0885 153.93 88.8072 153.532 88.6134 153.093C88.3839 152.671 88.216 152.227 88.0395 151.79C87.6987 150.91 87.4204 150.021 87.1727 149.137C86.6828 147.366 86.2987 145.614 85.9686 143.901C85.3159 140.473 84.8561 137.2 84.4669 134.125C83.7028 127.972 83.2496 122.603 82.9098 118.189C82.576 113.775 82.3792 110.312 82.2601 107.955C82.2082 106.779 82.1681 105.878 82.1411 105.265C82.1324 104.964 82.1258 104.735 82.1213 104.576C82.1182 104.42 82.1223 104.344 82.1223 104.344C82.1345 104.563 82.1955 105.653 82.3247 107.953C82.4651 110.309 82.6818 113.769 83.0339 118.181C83.3915 122.592 83.862 127.958 84.6414 134.104C85.0382 137.175 85.5052 140.444 86.1629 143.864C86.4961 145.573 86.8822 147.32 87.3726 149.081C87.6209 149.96 87.8986 150.843 88.2374 151.713C88.4129 152.145 88.5798 152.584 88.8051 152.997C88.9969 153.429 89.2696 153.811 89.527 154.206L89.5392 154.225L89.5422 154.233C90.0448 155.584 90.4427 156.992 90.7021 158.457C90.8288 159.189 90.9163 159.935 90.9341 160.692C90.9402 161.074 90.9737 161.437 90.9921 161.813C91.0312 162.187 91.0709 162.563 91.1101 162.941C91.4601 165.961 91.9164 169.06 92.3783 172.234C93.3184 178.583 94.3561 185.237 95.4585 192.135L95.3318 192.027C99.4905 192.026 103.741 192.025 108.072 192.024L107.941 192.158C107.837 187.138 107.732 182.012 107.624 176.807C107.518 172.449 107.402 168.146 107.259 163.913C107.107 159.682 106.965 155.515 106.646 151.448C106.47 149.417 106.172 147.419 105.701 145.481C105.257 143.538 104.579 141.67 104.215 139.732C103.846 137.791 103.898 135.821 104.138 133.926C104.384 132.029 104.74 130.181 105.091 128.359C106.543 121.084 108.184 114.288 109.26 107.929C109.532 106.341 109.745 104.778 109.838 103.241C109.928 101.703 109.914 100.195 109.825 98.7275C109.637 95.7948 109.188 93.0183 108.513 90.4768L108.639 90.5302C100.347 94.8603 93.7284 98.3165 89.1775 100.693C86.901 101.876 85.1425 102.791 83.948 103.412C83.3538 103.718 82.9011 103.952 82.5913 104.112C82.284 104.267 82.1223 104.344 82.1223 104.344Z" fill="#455A64"/>
<path d="M61.9424 69.9359C62.4129 69.7476 77.9544 67.8802 77.9544 67.8802L84.2603 62.5418L83.6687 77.9968L63.8241 79.91L61.9424 69.9359Z" fill="#FF725E"/>
<g opacity="0.3">
<path d="M80.806 65.3214C80.6167 65.416 79.0596 66.8002 79.0596 66.8002L79.5347 78.7009L80.806 65.3214Z" fill="black"/>
</g>
<path d="M84.6748 47.1515L87.2825 42.8056L87.634 38.9791C87.634 38.9791 93.0588 35.5698 95.6324 34.2828C98.2059 32.9957 101.673 31.8313 101.673 31.8313V35.4416L80.5752 66.64L81.938 55.1595C82.2743 52.3276 83.2072 49.5978 84.6748 47.1515Z" fill="#EBEBEB"/>
<path d="M108.1 83.7574C108.1 83.7574 109.636 61.7533 109.74 60.1184C109.74 60.1184 110.648 48.3617 108.689 43.8846C106.73 39.4075 102.346 35.4726 102.346 35.4726L101.942 33.1224L93.3793 38.8733L89.421 42.5416C89.421 42.5416 87.1741 45.0693 85.6861 47.4933C84.5624 49.1497 83.313 51.2811 82.7575 53.961C82.554 54.9408 80.1982 66.6542 80.128 74.8189C80.128 74.8189 79.7658 81.9418 79.3797 85.9769C78.902 90.9708 79.1096 104.194 79.2678 110.938L106.079 108.196C112.936 107.081 111.73 106.355 111.73 106.355L108.1 83.7574Z" fill="#FF725E"/>
<path d="M101.674 35.4421C101.674 35.4421 101.609 35.4752 101.481 35.5301C101.346 35.5866 101.157 35.6654 100.915 35.7667C100.673 35.8832 100.379 36.0368 100.034 36.2164C99.7018 36.4219 99.3066 36.6335 98.8976 36.9255C97.2331 38.0426 95.0365 39.9355 92.8012 42.5604L92.7855 42.5787L92.7626 42.5828C91.9176 42.738 91.0248 42.9023 90.1005 43.0722L90.158 43.0055C90.1163 44.2422 90.0725 45.5404 90.0273 46.8839L90.0263 46.9144L90.0034 46.9363C88.6701 48.1989 87.3154 49.6279 86.0889 51.2272C85.5914 51.8824 85.133 52.5565 84.7469 53.2559L84.6019 53.5174L84.491 53.7906C84.4158 53.9712 84.3435 54.1528 84.2901 54.3441C84.1711 54.72 84.0541 55.0934 83.9574 55.4703C83.5464 56.97 83.2076 58.4335 82.8901 59.8279C82.2583 62.6181 81.7323 65.1408 81.2959 67.2601C80.425 71.4996 79.9346 74.1306 79.9346 74.1306C79.9346 74.1306 79.9412 73.9623 79.9941 73.6479C80.0424 73.333 80.1233 72.8701 80.2291 72.2739C80.4443 71.083 80.7689 69.3615 81.1901 67.2387C81.6128 65.1159 82.1281 62.5907 82.7528 59.7969C83.0667 58.4005 83.4029 56.9359 83.8129 55.4307C83.9091 55.0532 84.0266 54.6767 84.1461 54.2973C84.1991 54.106 84.2733 53.9183 84.3517 53.7306L84.4666 53.4482L84.6131 53.1832C85.0043 52.4741 85.4662 51.7949 85.9668 51.1352C87.2019 49.5251 88.5592 48.0956 89.9026 46.8274L89.8787 46.8793C89.9271 45.5358 89.9739 44.2381 90.0181 43.0015L90.0202 42.945L90.0756 42.9348C91.0004 42.768 91.8937 42.6067 92.7397 42.4541L92.701 42.477C94.9576 39.8485 97.171 37.9663 98.8564 36.8619C99.2705 36.574 99.6708 36.3654 100.006 36.165C100.356 35.99 100.654 35.8414 100.9 35.73C101.146 35.6364 101.338 35.5632 101.475 35.5108C101.605 35.4619 101.674 35.4421 101.674 35.4421Z" fill="#263238"/>
<path d="M79.2715 83.851C79.2689 83.851 79.2679 83.8266 79.2689 83.7787C79.271 83.7223 79.2735 83.6526 79.2766 83.5676C79.2872 83.3697 79.3015 83.0991 79.3203 82.7573C79.3661 82.0405 79.4302 81.0261 79.5101 79.7788C79.6795 77.2643 79.9221 73.7908 80.2609 69.9598C80.6007 66.1277 80.9919 62.666 81.3109 60.1657C81.4711 58.9158 81.607 57.905 81.7092 57.2076C81.7596 56.8688 81.7997 56.6007 81.8293 56.4048C81.8435 56.3209 81.8547 56.2527 81.8644 56.1968C81.873 56.15 81.8791 56.1261 81.8816 56.1266C81.8842 56.1271 81.8837 56.1515 81.8801 56.1988C81.8745 56.2553 81.8684 56.3244 81.8603 56.4089C81.8379 56.6058 81.8074 56.8749 81.7687 57.2152C81.6843 57.9284 81.5652 58.9372 81.4187 60.1789C81.1272 62.6817 80.7533 66.1425 80.414 69.9735C80.0752 73.803 79.8158 77.2744 79.6184 79.7869C79.5187 81.0333 79.4378 82.0461 79.3803 82.7618C79.3498 83.1032 79.3259 83.3728 79.3081 83.5702C79.299 83.6546 79.2913 83.7238 79.2852 83.7803C79.2786 83.8271 79.274 83.8515 79.2715 83.851Z" fill="#263238"/>
<path d="M105.227 42.7049C105.212 42.7314 104.847 42.4974 104.201 42.2501C103.88 42.1235 103.484 42.0095 103.037 41.9184C102.589 41.8365 102.09 41.7826 101.564 41.7867C101.038 41.7974 100.54 41.8645 100.094 41.9591C99.6505 42.0624 99.2573 42.1875 98.9398 42.3224C98.3014 42.5874 97.9428 42.8316 97.927 42.8056C97.9214 42.797 98.0074 42.7324 98.1702 42.6225C98.2505 42.566 98.3513 42.5009 98.4749 42.4368C98.598 42.3717 98.7343 42.2888 98.8971 42.2227C99.2146 42.0726 99.6113 41.9342 100.063 41.8208C100.516 41.717 101.025 41.6432 101.562 41.6326C102.099 41.6285 102.61 41.688 103.065 41.7791C103.52 41.8798 103.92 42.007 104.242 42.1484C104.406 42.2099 104.545 42.2888 104.669 42.3508C104.795 42.4114 104.897 42.4734 104.979 42.5279C105.145 42.6342 105.233 42.6963 105.227 42.7049Z" fill="#263238"/>
<g opacity="0.3">
<path d="M80.999 68.4789C82.197 66.7356 82.6371 65.091 83.277 63.0745C84.2283 60.0777 84.4938 56.6922 85.9869 53.9249C86.8659 52.2955 87.8996 50.6239 89.4283 49.579C90.9193 48.5596 91.14 47.2644 91.1105 43.7605C92.1763 43.7711 93.3026 42.9496 93.4369 42.8056C94.1628 42.0253 94.6883 40.7866 94.7437 40.3562C93.9964 41.1691 92.7496 42.5177 92.7496 42.5177C92.7496 42.5177 90.0468 43.0198 90.0865 43.0025C90.0199 44.3506 90.0178 45.5328 89.9512 46.8809C89.9512 46.8809 84.766 52.382 84.3626 53.4884C83.9592 54.5949 80.999 68.4789 80.999 68.4789Z" fill="black"/>
</g>
<path d="M101.255 33.4403C101.258 33.4449 101.207 33.4836 101.108 33.5528C100.994 33.6296 100.849 33.7283 100.67 33.8498C100.269 34.1128 99.718 34.4755 99.044 34.9186C97.6486 35.8175 95.7491 37.042 93.6502 38.3946C92.8378 38.913 92.0549 39.412 91.3228 39.8785L91.3279 39.8749C91.0736 40.0718 90.8253 40.2636 90.5847 40.4503C90.3375 40.6314 90.1258 40.816 89.9208 41.0175C89.5134 41.4112 89.1507 41.7938 88.8246 42.1407L88.7656 42.2033L88.732 42.1254C88.3795 41.311 88.0915 40.6456 87.883 40.1639C87.7909 39.9431 87.7171 39.7651 87.6597 39.6267C87.6103 39.5031 87.5864 39.437 87.5915 39.4349C87.5966 39.4324 87.6301 39.4944 87.6892 39.6135C87.7538 39.7488 87.8367 39.9228 87.94 40.1385C88.1592 40.6151 88.4629 41.2739 88.8343 42.0797L88.7417 42.0644C89.0632 41.7109 89.4218 41.3232 89.8283 40.9224C90.0267 40.7224 90.2586 40.5179 90.5008 40.3379C90.7399 40.1507 90.9856 39.9579 91.2379 39.76L91.2404 39.7579L91.243 39.7559C91.974 39.2869 92.7559 38.7858 93.5672 38.2654C95.6763 36.927 97.585 35.7163 98.9865 34.8266C99.6712 34.4008 100.232 34.0523 100.638 33.799C100.824 33.6876 100.974 33.597 101.092 33.5263C101.196 33.4653 101.252 33.4358 101.255 33.4403Z" fill="#263238"/>
<path d="M79.0474 124.015L72.4922 100.474L104.023 91.9317L110.5 114.322L79.0474 124.015Z" fill="#455A64"/>
<path d="M92.3459 51.7456L92.6786 79.2996L88.2305 110.925H99.2979C99.2979 110.925 104.572 85.7601 105.743 81.4779C106.879 77.3202 108.583 56.3906 108.734 55.3635C108.793 54.9606 109.992 47.7324 106.462 44.3225" fill="#FF725E"/>
<g opacity="0.3">
<path d="M101.155 102.141C107.726 89.7036 108.851 74.0208 108.46 58.4437C108.46 58.4437 106.574 77.3777 105.938 80.6278C105.307 83.855 101.155 102.141 101.155 102.141Z" fill="black"/>
</g>
<path d="M90.0631 110.925C89.9858 111.051 88.1936 115.893 87.8395 117.08C87.485 118.267 87.9438 122.161 88.7883 122.862C89.6327 123.563 90.0626 124.079 90.3856 124.009C90.7086 123.938 91.96 122.463 91.96 122.463C91.96 122.463 93.6306 123.636 94.5295 121.519C94.5295 121.519 96.1136 121.972 96.3827 120.012C96.3827 120.012 97.8712 119.472 97.5583 118.298L97.2089 117.555C97.2089 117.555 97.5105 113.853 97.3767 112.453C97.2429 111.054 96.7658 110.794 96.7658 110.794L90.0631 110.925Z" fill="#E5967A"/>
<path d="M89.7718 119.813C89.7128 119.852 90.0831 120.554 90.6447 121.348C91.2053 122.143 91.74 122.721 91.7939 122.675C91.8499 122.629 91.4083 121.98 90.8528 121.192C90.2952 120.404 89.8323 119.772 89.7718 119.813Z" fill="#CC7E66"/>
<path d="M92.5951 119.347C92.5381 119.387 92.8749 119.993 93.4401 120.621C94.0032 121.25 94.5633 121.644 94.6065 121.589C94.6533 121.531 94.1787 121.056 93.6293 120.441C93.0774 119.828 92.6546 119.303 92.5951 119.347Z" fill="#CC7E66"/>
<path d="M90.3127 119.24C90.2557 119.283 90.5055 119.612 90.9699 119.65C91.4339 119.691 91.7391 119.407 91.6903 119.356C91.6511 119.292 91.3596 119.423 90.9933 119.387C90.6261 119.362 90.3626 119.185 90.3127 119.24Z" fill="#CC7E66"/>
<path d="M87.9652 119.368C87.9271 119.426 88.2221 119.668 88.6708 119.704C89.1195 119.743 89.4532 119.554 89.4262 119.49C89.4028 119.419 89.0808 119.477 88.6947 119.441C88.3076 119.412 88.0008 119.302 87.9652 119.368Z" fill="#CC7E66"/>
<path d="M93.2033 118.952C93.1524 119.005 93.4277 119.261 93.8407 119.191C94.2548 119.123 94.442 118.789 94.3784 118.755C94.322 118.709 94.1113 118.884 93.8021 118.931C93.4948 118.988 93.2435 118.89 93.2033 118.952Z" fill="#CC7E66"/>
<path d="M88.3546 110.925L87.9639 112.767H98.3053V110.925H88.3546Z" fill="white"/>
<path d="M106.473 44.3358C106.473 44.3358 106.558 44.4177 106.716 44.5881C106.873 44.7595 107.122 45.0017 107.362 45.3893C107.882 46.129 108.462 47.3687 108.779 49.0667C109.088 50.7617 109.17 52.8958 108.827 55.3238C108.581 57.7458 108.36 60.5253 108.069 63.5877C107.782 66.6522 107.458 70.0091 107.052 73.6097C106.84 75.409 106.622 77.2709 106.325 79.1816C106.241 79.6582 106.156 80.139 106.071 80.6222C105.963 81.104 105.856 81.5913 105.729 82.0675C105.484 83.0269 105.259 84.0082 105.032 85.0012C103.236 92.9527 101.386 101.734 99.439 110.965L99.4166 111.07H99.3093C98.9232 111.07 98.5045 111.07 98.0853 111.07C94.7376 111.07 91.4457 111.069 88.2419 111.069H88.0908L88.1122 110.919C89.7873 99.0801 91.3191 88.2513 92.5857 79.2976L92.5847 79.3133C92.5023 70.9131 92.4352 64.0262 92.3878 59.2312C92.3711 56.8433 92.3584 54.9784 92.3497 53.6995C92.3487 53.0708 92.3482 52.588 92.3477 52.2528C92.3492 51.9262 92.3578 51.7583 92.3578 51.7583C92.3578 51.7583 92.3706 51.9262 92.3797 52.2523C92.3873 52.5875 92.398 53.0703 92.4128 53.699C92.4347 54.9774 92.4667 56.8428 92.5084 59.2302C92.5771 64.0252 92.6758 70.911 92.7963 79.3113V79.3194L92.7953 79.3276C91.5429 88.2833 90.0285 99.1147 88.3726 110.956L88.2429 110.807C91.4462 110.807 94.7386 110.806 98.0864 110.806C98.5055 110.806 98.9242 110.806 99.3103 110.806L99.1806 110.911C101.128 101.679 102.986 92.8998 104.796 84.9472C105.026 83.9532 105.252 82.9729 105.5 82.0084C105.63 81.5252 105.734 81.0495 105.842 80.5759C105.928 80.0957 106.013 79.6185 106.097 79.1449C106.398 77.2414 106.62 75.381 106.837 73.5843C107.252 69.9877 107.587 66.6323 107.885 63.5699C108.188 60.5065 108.421 57.7386 108.683 55.3024C109.038 52.8927 108.971 50.7699 108.68 49.0845C108.381 47.3962 107.821 46.1615 107.319 45.4183C107.088 45.0286 106.847 44.7824 106.697 44.6059C106.546 44.4309 106.473 44.3358 106.473 44.3358Z" fill="#263238"/>
</svg>
