<svg width="16" height="16" viewBox="0 0 16 16" fill="none" xmlns="http://www.w3.org/2000/svg">
<path d="M7.33331 9.99992H8.66665C9.02027 9.99992 9.35941 9.85944 9.60946 9.60939C9.8595 9.35935 9.99998 9.02021 9.99998 8.66659C9.99998 8.31296 9.8595 7.97383 9.60946 7.72378C9.35941 7.47373 9.02027 7.33325 8.66665 7.33325H6.66665C6.26665 7.33325 5.93331 7.46659 5.73331 7.73325L1.99998 11.3333M4.66665 13.9999L5.73331 13.0666C5.93331 12.7999 6.26665 12.6666 6.66665 12.6666H9.33331C10.0666 12.6666 10.7333 12.3999 11.2 11.8666L14.2666 8.93327C14.5239 8.69016 14.6741 8.3548 14.6841 8.00098C14.6941 7.64716 14.5631 7.30386 14.32 7.0466C14.0769 6.78934 13.7415 6.6392 13.3877 6.6292C13.0339 6.61919 12.6906 6.75016 12.4333 6.99327L9.63331 9.59327M1.33331 10.6666L5.33331 14.6666M12.6 5.99998C12.6 7.06773 11.7345 7.93332 10.6667 7.93332C9.59896 7.93332 8.73338 7.06773 8.73338 5.99998C8.73338 4.93223 9.59896 4.06665 10.6667 4.06665C11.7345 4.06665 12.6 4.93223 12.6 5.99998ZM5.99998 3.33325C5.99998 4.43782 5.10455 5.33325 3.99998 5.33325C2.89541 5.33325 1.99998 4.43782 1.99998 3.33325C1.99998 2.22868 2.89541 1.33325 3.99998 1.33325C5.10455 1.33325 5.99998 2.22868 5.99998 3.33325Z" stroke="white" stroke-width="2" stroke-linecap="round" stroke-linejoin="round"/>
</svg>
