<svg width="19" height="19" viewBox="0 0 19 19" fill="none" xmlns="http://www.w3.org/2000/svg">
<path d="M13.9809 12.9548C13.4788 12.9548 13.0717 12.5477 13.0717 12.0456V6.75137C13.0717 4.96704 11.62 3.51532 9.83566 3.51532C8.05133 3.51532 6.59961 4.967 6.59961 6.75137V9.83059C6.59961 10.3327 6.19256 10.7398 5.69043 10.7398C5.1883 10.7398 4.78125 10.3327 4.78125 9.83059V6.75137C4.78125 3.96434 7.04863 1.69696 9.83566 1.69696C12.6227 1.69696 14.8901 3.96434 14.8901 6.75137V12.0456C14.8901 12.5477 14.483 12.9548 13.9809 12.9548Z" fill="#DEE1E2"/>
<path d="M15.3675 18.4604H4.30378C3.27084 18.4604 2.43347 17.623 2.43347 16.5901V10.1936C2.43347 9.16068 3.27084 8.3233 4.30378 8.3233H15.3675C16.4004 8.3233 17.2378 9.16068 17.2378 10.1936V16.59C17.2378 17.623 16.4004 18.4604 15.3675 18.4604Z" fill="#F9C261"/>
<path d="M4.05642 16.9531H3.96272C3.66759 16.9531 3.42834 16.7139 3.42834 16.4187V10.365C3.42834 10.0699 3.66759 9.83063 3.96272 9.83063H4.05642C4.35155 9.83063 4.5908 10.0699 4.5908 10.365V16.4187C4.5908 16.7139 4.35155 16.9531 4.05642 16.9531Z" fill="#FFD469"/>
</svg>
