<svg width="20" height="20" viewBox="0 0 20 20" fill="none" xmlns="http://www.w3.org/2000/svg">
<path d="M18.3337 10.8335V5.00016C18.3337 4.55814 18.1581 4.13421 17.8455 3.82165C17.5329 3.50909 17.109 3.3335 16.667 3.3335H3.33366C2.89163 3.3335 2.46771 3.50909 2.15515 3.82165C1.84259 4.13421 1.66699 4.55814 1.66699 5.00016V15.0002C1.66699 15.9168 2.41699 16.6668 3.33366 16.6668H10.0003M18.3337 5.8335L10.8587 10.5835C10.6014 10.7447 10.3039 10.8302 10.0003 10.8302C9.69673 10.8302 9.39927 10.7447 9.14199 10.5835L1.66699 5.8335M13.3337 15.8335L15.0003 17.5002L18.3337 14.1668" stroke="#303F58" stroke-width="2" stroke-linecap="round" stroke-linejoin="round"/>
</svg>
