<svg width="41" height="41" viewBox="0 0 41 41" fill="none" xmlns="http://www.w3.org/2000/svg">
<path d="M15.0925 23.9165H8.54102C8.19343 23.9354 7.85992 24.0601 7.58514 24.2738C7.31036 24.4875 7.10743 24.7801 7.00352 25.1123L3.58685 35.3623C3.41602 35.5332 3.41602 35.704 3.41602 35.8748C3.41602 36.8998 4.09935 37.5832 5.12435 37.5832H35.8743C36.8993 37.5832 37.5827 36.8998 37.5827 35.8748C37.5827 35.704 37.5827 35.5332 37.4118 35.3623L33.9952 25.1123C33.8913 24.7801 33.6883 24.4875 33.4136 24.2738C33.1388 24.0601 32.8053 23.9354 32.4577 23.9165H25.9062M30.7493 13.6665C30.7493 21.354 20.4993 29.0415 20.4993 29.0415C20.4993 29.0415 10.2493 21.354 10.2493 13.6665C10.2493 10.948 11.3293 8.34091 13.2515 6.41866C15.1738 4.49641 17.7809 3.4165 20.4993 3.4165C23.2178 3.4165 25.8249 4.49641 27.7472 6.41866C29.6694 8.34091 30.7493 10.948 30.7493 13.6665ZM23.916 13.6665C23.916 15.5535 22.3863 17.0832 20.4993 17.0832C18.6124 17.0832 17.0827 15.5535 17.0827 13.6665C17.0827 11.7795 18.6124 10.2498 20.4993 10.2498C22.3863 10.2498 23.916 11.7795 23.916 13.6665Z" stroke="#303F58" stroke-width="2" stroke-linecap="round" stroke-linejoin="round"/>
</svg>
