<svg width="20" height="20" viewBox="0 0 20 20" fill="none" xmlns="http://www.w3.org/2000/svg">
<g clip-path="url(#clip0_6476_4696)">
<path d="M7.36283 11.6666H4.16699C3.99744 11.6759 3.83475 11.7367 3.70071 11.8409C3.56667 11.9452 3.46768 12.0879 3.41699 12.25L1.75033 17.25C1.66699 17.3333 1.66699 17.4166 1.66699 17.5C1.66699 18 2.00033 18.3333 2.50033 18.3333H17.5003C18.0003 18.3333 18.3337 18 18.3337 17.5C18.3337 17.4166 18.3337 17.3333 18.2503 17.25L16.5837 12.25C16.533 12.0879 16.434 11.9452 16.2999 11.8409C16.1659 11.7367 16.0032 11.6759 15.8337 11.6666H12.6378M15.0003 6.66663C15.0003 10.4166 10.0003 14.1666 10.0003 14.1666C10.0003 14.1666 5.00033 10.4166 5.00033 6.66663C5.00033 5.34054 5.52711 4.06877 6.46479 3.13109C7.40247 2.19341 8.67424 1.66663 10.0003 1.66663C11.3264 1.66663 12.5982 2.19341 13.5359 3.13109C14.4735 4.06877 15.0003 5.34054 15.0003 6.66663ZM11.667 6.66663C11.667 7.5871 10.9208 8.33329 10.0003 8.33329C9.07985 8.33329 8.33366 7.5871 8.33366 6.66663C8.33366 5.74615 9.07985 4.99996 10.0003 4.99996C10.9208 4.99996 11.667 5.74615 11.667 6.66663Z" stroke="#303F58" stroke-width="2" stroke-linecap="round" stroke-linejoin="round"/>
</g>
<defs>
<clipPath id="clip0_6476_4696">
<rect width="20" height="20" fill="white"/>
</clipPath>
</defs>
</svg>
