<svg width="20" height="20" viewBox="0 0 20 20" fill="none" xmlns="http://www.w3.org/2000/svg">
<g id="box">
<path id="Vector" d="M2.75004 5.83331L10 9.99998M10 9.99998L17.25 5.83331M10 9.99998L10 18.3333M17.5 6.66656C17.4997 6.37429 17.4225 6.08724 17.2763 5.8342C17.13 5.58116 16.9198 5.37103 16.6667 5.2249L10.8333 1.89156C10.58 1.74528 10.2926 1.66827 10 1.66827C9.70744 1.66827 9.42003 1.74528 9.16667 1.89156L3.33333 5.2249C3.08022 5.37103 2.86998 5.58116 2.72372 5.8342C2.57745 6.08724 2.5003 6.37429 2.5 6.66656V13.3332C2.5003 13.6255 2.57745 13.9126 2.72372 14.1656C2.86998 14.4186 3.08022 14.6288 3.33333 14.7749L9.16667 18.1082C9.42003 18.2545 9.70744 18.3315 10 18.3315C10.2926 18.3315 10.58 18.2545 10.8333 18.1082L16.6667 14.7749C16.9198 14.6288 17.13 14.4186 17.2763 14.1656C17.4225 13.9126 17.4997 13.6255 17.5 13.3332V6.66656Z" stroke="#F7E7CE" stroke-opacity="0.8" stroke-width="2" stroke-linecap="round" stroke-linejoin="round"/>
</g>
</svg>
