<svg width="32" height="32" viewBox="0 0 32 32" fill="none" xmlns="http://www.w3.org/2000/svg">
<g clip-path="url(#clip0_6102_1181)">
<path d="M11.3334 15.3333L7.33341 19.3333H0.666748L4.66675 15.3333H11.3334Z" fill="#E3E6D5"/>
<path d="M11.3334 15.3333L8.66674 18H7.10674C6.79716 18.0014 6.49415 17.9107 6.23629 17.7394C5.97843 17.5681 5.77737 17.3239 5.6587 17.0379C5.54004 16.752 5.50913 16.4372 5.56992 16.1337C5.63071 15.8301 5.78045 15.5515 6.00007 15.3333H11.3334Z" fill="#FCFFED"/>
<path d="M11.3334 15.3333V31.3333H4.66675V19.3333H7.33341L11.3334 15.3333Z" fill="#CACCBE"/>
<path d="M11.3335 17.3333V30C10.6329 30.0005 9.93905 29.863 9.29161 29.5954C8.64417 29.3277 8.05581 28.9351 7.56014 28.44C5.58681 26.4533 6.00014 24.34 6.00014 20.6666H8.00014L11.3335 17.3333Z" fill="#FCFFED"/>
<path d="M27.3333 19.3333V31.3333H11.3333V15.3333L15.3333 19.3333H27.3333Z" fill="#CACCBE"/>
<path d="M27.3333 20.6666V30H26C22.8855 29.9998 19.8802 28.8521 17.5583 26.7762C15.2365 24.7003 13.7608 21.8417 13.4133 18.7466L15.3333 20.6666H27.3333Z" fill="#FCFFED"/>
<path d="M31.3333 19.3333H15.3333L11.3333 15.3333H27.3333L31.3333 19.3333Z" fill="#CACCBE"/>
<path d="M30 18H19.6C18.4582 18.0014 17.3274 17.7771 16.2726 17.34C15.2178 16.903 14.2597 16.2618 13.4534 15.4534C13.28 15.28 11.7667 15.3334 27.3334 15.3334L30 18Z" fill="#FCFFED"/>
<path d="M11.3333 3.33331H25.9999V15.3333H11.3333V3.33331Z" fill="#F7E7CE"/>
<path d="M25.9999 3.33331V14H23.9999C21.1709 14 18.4578 12.8762 16.4574 10.8758C14.4571 8.8754 13.3333 6.16229 13.3333 3.33331H25.9999Z" fill="#F7E7CE"/>
<path d="M11.3333 3.33331V15.3333H6V8.39998C7.03333 7.16665 6.98667 7.21998 8 5.99998H6V3.33331H11.3333Z" fill="#F7E7CE"/>
<path d="M16.6667 3.33331H20.6667V5.99998H16.6667V3.33331Z" fill="#DF8761"/>
<path d="M20.6666 3.33331V5.33331H19.3333C18.8028 5.33331 18.2941 5.1226 17.919 4.74753C17.544 4.37245 17.3333 3.86375 17.3333 3.33331H20.6666Z" fill="#F29B75"/>
<path d="M7.99992 6.00002L4.66658 10L1.33325 6.00002H3.33325V0.666687H5.99992V6.00002H7.99992Z" fill="#9DCC6B"/>
<path d="M11.3333 3.33331C11.3333 14.5466 11.2666 14 11.3333 14C10.2724 14 9.25497 13.5786 8.50482 12.8284C7.75468 12.0783 7.33325 11.0608 7.33325 9.99998V6.79998L7.99992 5.99998H7.33325V3.33331H11.3333Z" fill="#F7E7CE"/>
<path d="M8 6.00002L5.78 8.66669C5.30791 8.66669 4.85516 8.47915 4.52135 8.14534C4.18754 7.81152 4 7.35877 4 6.88669V0.666687H6V6.00002H8Z" fill="#B5E08C"/>
<path d="M31.8067 18.86C27.0134 14.0733 27.9267 14.6667 26.6667 14.6667V3.33333C26.6667 3.15652 26.5965 2.98695 26.4714 2.86193C26.3464 2.7369 26.1768 2.66667 26 2.66667H6.66669V0.666667C6.66669 0.489856 6.59645 0.320286 6.47143 0.195262C6.3464 0.0702379 6.17684 0 6.00002 0L3.33336 0C3.15655 0 2.98698 0.0702379 2.86195 0.195262C2.73693 0.320286 2.66669 0.489856 2.66669 0.666667V5.33333H1.33336C1.20657 5.33313 1.08235 5.36908 0.975271 5.43698C0.868193 5.50487 0.782697 5.6019 0.728812 5.71667C0.674926 5.83144 0.654886 5.95919 0.671042 6.08495C0.687197 6.2107 0.738879 6.32925 0.820025 6.42667C4.35336 10.6667 4.22669 10.6667 4.66669 10.6667C4.76463 10.6668 4.8614 10.6454 4.95013 10.6039C5.03885 10.5624 5.11734 10.5019 5.18002 10.4267C5.40002 10.16 5.33336 9.56667 5.33336 14.6667C4.78002 14.6667 4.45336 14.6 4.19336 14.86C-0.113309 19.1733 -0.179975 19.0267 0.0533581 19.5867C0.286691 20.1467 0.553358 20 4.00002 20V31.3333C4.00002 31.5101 4.07026 31.6797 4.19529 31.8047C4.32031 31.9298 4.48988 32 4.66669 32H27.3334C27.5102 32 27.6797 31.9298 27.8048 31.8047C27.9298 31.6797 28 31.5101 28 31.3333V20C31.5134 20 31.7267 20.1333 31.9467 19.5867C31.9977 19.4653 32.0117 19.3315 31.9868 19.2021C31.9619 19.0728 31.8992 18.9538 31.8067 18.86ZM25.3334 14.6667H12V4H16V6C16 6.17681 16.0703 6.34638 16.1953 6.4714C16.3203 6.59643 16.4899 6.66667 16.6667 6.66667H20.6667C20.8435 6.66667 21.0131 6.59643 21.1381 6.4714C21.2631 6.34638 21.3334 6.17681 21.3334 6V4H25.3334V14.6667ZM20 4V5.33333H17.3334V4H20ZM4.66669 8.96L2.76002 6.66667H3.33336C3.51017 6.66667 3.67974 6.59643 3.80476 6.4714C3.92979 6.34638 4.00002 6.17681 4.00002 6V1.33333H5.33336V6C5.33336 6.17681 5.4036 6.34638 5.52862 6.4714C5.65364 6.59643 5.82321 6.66667 6.00002 6.66667H6.57336L4.66669 8.96ZM6.66669 8.66667C8.62002 6.32667 8.84002 6.24667 8.60669 5.74667C8.37336 5.24667 7.94669 5.33333 6.66669 5.33333V4H10.6667V14.6667H6.66669V8.66667ZM4.94002 16H9.72669L7.06002 18.6667H2.27336L4.94002 16ZM5.33336 20C7.50669 20 7.54669 20.06 7.80669 19.8067L10.6667 16.94V30.6667H5.33336V20ZM26.6667 30.6667H12V16.94C15.0734 20 14.9534 20 15.3334 20H26.6667V30.6667ZM15.6067 18.6667L12.94 16H27.06L29.7267 18.6667H15.6067Z" fill="black"/>
</g>
<defs>
<clipPath id="clip0_6102_1181">
<rect width="32" height="32" fill="white"/>
</clipPath>
</defs>
</svg>
