<svg width="20" height="20" viewBox="0 0 20 20" fill="none" xmlns="http://www.w3.org/2000/svg">
<g id="receipt-indian-rupee">
<path id="Vector" d="M6.66683 5.83329H13.3335M10.0002 14.5833L6.66683 12.5H7.50016C8.38422 12.5 9.23206 12.1488 9.85719 11.5236C10.4823 10.8985 10.8335 10.0507 10.8335 9.16663C10.8335 8.28257 10.4823 7.43472 9.85719 6.8096C9.23206 6.18448 8.38422 5.83329 7.50016 5.83329M6.66683 9.16663H13.3335M3.3335 1.66663V18.3333L5.00016 17.5L6.66683 18.3333L8.3335 17.5L10.0002 18.3333L11.6668 17.5L13.3335 18.3333L15.0002 17.5L16.6668 18.3333V1.66663L15.0002 2.49996L13.3335 1.66663L11.6668 2.49996L10.0002 1.66663L8.3335 2.49996L6.66683 1.66663L5.00016 2.49996L3.3335 1.66663Z" stroke="#F7E7CE" stroke-opacity="0.8" stroke-width="2" stroke-linecap="round" stroke-linejoin="round"/>
</g>
</svg>
