<svg width="19" height="18" viewBox="0 0 19 18" fill="none" xmlns="http://www.w3.org/2000/svg">
<g clip-path="url(#clip0_6115_3520)">
<path d="M13.25 2.25023C13.441 2.02451 13.6773 1.84078 13.9438 1.71074C14.2102 1.58071 14.5011 1.50724 14.7977 1.49499C15.0944 1.48275 15.3904 1.53202 15.6668 1.63965C15.9432 1.74728 16.194 1.91091 16.4032 2.12012C16.6124 2.32933 16.7755 2.57953 16.8819 2.85476C16.9883 3.13 17.0359 3.42423 17.0215 3.71872C17.007 4.0132 16.931 4.30147 16.7982 4.56516C16.6653 4.82884 16.4787 5.06216 16.25 5.25023L6.125 15.3752L2 16.5002L3.125 12.3752L13.25 2.25023Z" stroke="#0B9C56" stroke-width="2" stroke-linecap="round" stroke-linejoin="round"/>
</g>
<defs>
<clipPath id="clip0_6115_3520">
<rect width="18" height="18" fill="white" transform="translate(0.5 0.000244141)"/>
</clipPath>
</defs>
</svg>
