<svg width="20" height="20" viewBox="0 0 20 20" fill="none" xmlns="http://www.w3.org/2000/svg">
<g id="newspaper" clip-path="url(#clip0_6375_1273)">
<path id="Vector" d="M3.33317 18.3333H16.6665C17.1085 18.3333 17.5325 18.1577 17.845 17.8451C18.1576 17.5326 18.3332 17.1087 18.3332 16.6666V3.33329C18.3332 2.89127 18.1576 2.46734 17.845 2.15478C17.5325 1.84222 17.1085 1.66663 16.6665 1.66663H6.6665C6.22448 1.66663 5.80055 1.84222 5.48799 2.15478C5.17543 2.46734 4.99984 2.89127 4.99984 3.33329V16.6666C4.99984 17.1087 4.82424 17.5326 4.51168 17.8451C4.19912 18.1577 3.7752 18.3333 3.33317 18.3333ZM3.33317 18.3333C2.89114 18.3333 2.46722 18.1577 2.15466 17.8451C1.8421 17.5326 1.6665 17.1087 1.6665 16.6666V9.16663C1.6665 8.24996 2.4165 7.49996 3.33317 7.49996H4.99984M14.9998 11.6666H8.33317M12.4998 15H8.33317M8.33317 4.99996H14.9998V8.33329H8.33317V4.99996Z" stroke="#F7E7CE" stroke-opacity="0.8" stroke-width="2" stroke-linecap="round" stroke-linejoin="round"/>
</g>
<defs>
<clipPath id="clip0_6375_1273">
<rect width="20" height="20" fill="white"/>
</clipPath>
</defs>
</svg>
