<svg width="22" height="22" viewBox="0 0 22 22" fill="none" xmlns="http://www.w3.org/2000/svg">
<path d="M7.835 13H4C3.79653 13.0111 3.60131 13.0841 3.44046 13.2092C3.27962 13.3343 3.16083 13.5055 3.1 13.7L1.1 19.7C1 19.8 1 19.9 1 20C1 20.6 1.4 21 2 21H20C20.6 21 21 20.6 21 20C21 19.9 21 19.8 20.9 19.7L18.9 13.7C18.8392 13.5055 18.7204 13.3343 18.5595 13.2092C18.3987 13.0841 18.2035 13.0111 18 13H14.165M17 7C17 11.5 11 16 11 16C11 16 5 11.5 5 7C5 5.4087 5.63214 3.88258 6.75736 2.75736C7.88258 1.63214 9.4087 1 11 1C12.5913 1 14.1174 1.63214 15.2426 2.75736C16.3679 3.88258 17 5.4087 17 7ZM13 7C13 8.10457 12.1046 9 11 9C9.89543 9 9 8.10457 9 7C9 5.89543 9.89543 5 11 5C12.1046 5 13 5.89543 13 7Z" stroke="#787A7D" stroke-width="2" stroke-linecap="round" stroke-linejoin="round"/>
</svg>
