<svg width="36" height="36" viewBox="0 0 36 36" fill="none" xmlns="http://www.w3.org/2000/svg">
<rect width="36" height="36" rx="18" fill="#820000"/>
<path d="M15.3332 14.6667H20.6665M17.9998 21.6667L15.3332 20H15.9998C16.7071 20 17.3854 19.719 17.8855 19.2189C18.3856 18.7188 18.6665 18.0406 18.6665 17.3333C18.6665 16.6261 18.3856 15.9478 17.8855 15.4477C17.3854 14.9476 16.7071 14.6667 15.9998 14.6667M15.3332 17.3333H20.6665M12.6665 11.3333V24.6667L13.9998 24L15.3332 24.6667L16.6665 24L17.9998 24.6667L19.3332 24L20.6665 24.6667L21.9998 24L23.3332 24.6667V11.3333L21.9998 12L20.6665 11.3333L19.3332 12L17.9998 11.3333L16.6665 12L15.3332 11.3333L13.9998 12L12.6665 11.3333Z" stroke="#FFFEFB" stroke-width="1.5" stroke-linecap="round" stroke-linejoin="round"/>
</svg>
