<svg width="14" height="16" viewBox="0 0 14 16" fill="none" xmlns="http://www.w3.org/2000/svg">
<path d="M4.33335 4.66659H9.66669M7.00002 11.6666L4.33335 9.99992H5.00002C5.70726 9.99992 6.38554 9.71897 6.88564 9.21887C7.38574 8.71877 7.66669 8.0405 7.66669 7.33325C7.66669 6.62601 7.38574 5.94773 6.88564 5.44763C6.38554 4.94754 5.70726 4.66659 5.00002 4.66659M4.33335 7.33325H9.66669M1.66669 1.33325V14.6666L3.00002 13.9999L4.33335 14.6666L5.66669 13.9999L7.00002 14.6666L8.33335 13.9999L9.66669 14.6666L11 13.9999L12.3334 14.6666V1.33325L11 1.99992L9.66669 1.33325L8.33335 1.99992L7.00002 1.33325L5.66669 1.99992L4.33335 1.33325L3.00002 1.99992L1.66669 1.33325Z" stroke="#FFFEFB" stroke-width="1.5" stroke-linecap="round" stroke-linejoin="round"/>
</svg>
