<svg width="20" height="20" viewBox="0 0 20 20" fill="none" xmlns="http://www.w3.org/2000/svg">
<g id="shopping-cart" clip-path="url(#clip0_6294_1299)">
<path id="Vector" d="M1.70837 1.70819H3.37504L5.59171 12.0582C5.67302 12.4372 5.88393 12.7761 6.18813 13.0164C6.49233 13.2567 6.8708 13.3835 7.25837 13.3749H15.4084C15.7877 13.3742 16.1554 13.2443 16.4509 13.0064C16.7463 12.7685 16.9518 12.437 17.0334 12.0665L18.4084 5.87486H4.26671M7.5 17.5C7.5 17.9603 7.1269 18.3334 6.66667 18.3334C6.20643 18.3334 5.83333 17.9603 5.83333 17.5C5.83333 17.0398 6.20643 16.6667 6.66667 16.6667C7.1269 16.6667 7.5 17.0398 7.5 17.5ZM16.6667 17.5C16.6667 17.9603 16.2936 18.3334 15.8333 18.3334C15.3731 18.3334 15 17.9603 15 17.5C15 17.0398 15.3731 16.6667 15.8333 16.6667C16.2936 16.6667 16.6667 17.0398 16.6667 17.5Z" stroke="#F7E7CE" stroke-opacity="0.8" stroke-width="2" stroke-linecap="round" stroke-linejoin="round"/>
</g>
<defs>
<clipPath id="clip0_6294_1299">
<rect width="20" height="20" fill="white"/>
</clipPath>
</defs>
</svg>
