<svg width="20" height="20" viewBox="0 0 20 20" fill="none" xmlns="http://www.w3.org/2000/svg">
<g id="webhook">
<path id="Vector" d="M14.9998 14.15H10.0082C9.0915 14.15 8.38317 14.9333 7.9415 15.7333C7.59188 16.3894 7.033 16.9097 6.35369 17.2116C5.67438 17.5136 4.91364 17.5798 4.1924 17.3997C3.47115 17.2196 2.8308 16.8036 2.37313 16.2178C1.91546 15.632 1.66674 14.9101 1.6665 14.1667C1.67484 13.5833 1.83317 13 2.1415 12.5M4.99984 14.1668L7.60817 9.35015C8.04984 8.54182 7.6915 7.53348 7.1915 6.76682C6.95552 6.3894 6.79751 5.96854 6.7268 5.52907C6.6561 5.08961 6.67413 4.64043 6.77983 4.20804C6.88553 3.77565 7.07676 3.36881 7.34224 3.01152C7.60772 2.65424 7.94207 2.35374 8.32556 2.12777C8.70906 1.90179 9.13392 1.75491 9.5751 1.69579C10.0163 1.63667 10.4648 1.66651 10.8943 1.78355C11.3237 1.90059 11.7254 2.10246 12.0756 2.37725C12.4258 2.65204 12.7174 2.99418 12.9332 3.38348M9.99984 5L12.6082 9.775C13.0498 10.5833 14.0832 10.8333 14.9998 10.8333C15.8839 10.8333 16.7317 11.1845 17.3569 11.8096C17.982 12.4348 18.3332 13.2826 18.3332 14.1667C18.3332 15.0507 17.982 15.8986 17.3569 16.5237C16.7317 17.1488 15.8839 17.5 14.9998 17.5" stroke="#F7E7CE" stroke-opacity="0.8" stroke-width="2" stroke-linecap="round" stroke-linejoin="round"/>
</g>
</svg>
