<svg width="32" height="32" viewBox="0 0 32 32" fill="none" xmlns="http://www.w3.org/2000/svg">
<path d="M5 30C3.3457 30 2 28.6543 2 27V8H22V27C22 28.6543 20.6543 30 19 30H5Z" fill="#F7E7CE"/>
<path d="M22 30C17.5889 30 14 26.4111 14 22C14 17.5889 17.5889 14 22 14C26.4111 14 30 17.5889 30 22C30 26.4111 26.4111 30 22 30Z" fill="#E3E6D5"/>
<path d="M23 13.0586V7H17V6C17 3.24316 14.7568 1 12 1C9.24316 1 7 3.24316 7 6V7H1V27C1 29.2051 2.79395 31 5 31H19C19.3916 31 19.7803 30.9229 20.1543 30.8086C20.751 30.9326 21.3672 31 22 31C26.9629 31 31 26.9629 31 22C31 17.376 27.4932 13.5586 23 13.0586ZM9 6C9 4.3457 10.3457 3 12 3C13.6543 3 15 4.3457 15 6V7H9V6ZM5 29C3.89746 29 3 28.1035 3 27V9H7V11H9V9H15V11H17V9H21V13.0586C16.5068 13.5586 13 17.376 13 22C13 24.8262 14.3115 27.3486 16.3555 29H5ZM22 29C18.1406 29 15 25.8594 15 22C15 18.1406 18.1406 15 22 15C25.8594 15 29 18.1406 29 22C29 25.8594 25.8594 29 22 29ZM21 25.4141L17.5859 22L19 20.5859L21 22.5859L25 18.5859L26.4141 20L21 25.4141Z" fill="#303F58"/>
</svg>
