<svg width="20" height="20" viewBox="0 0 20 20" fill="none" xmlns="http://www.w3.org/2000/svg">
<g id="users-round">
<path id="Vector" d="M15 17.5C15 15.7319 14.2976 14.0362 13.0473 12.786C11.7971 11.5357 10.1014 10.8333 8.33329 10.8333M8.33329 10.8333C6.56518 10.8333 4.86949 11.5357 3.61925 12.786C2.36901 14.0362 1.66663 15.7319 1.66663 17.5M8.33329 10.8333C10.6345 10.8333 12.5 8.96785 12.5 6.66667C12.5 4.36548 10.6345 2.5 8.33329 2.5C6.03211 2.5 4.16663 4.36548 4.16663 6.66667C4.16663 8.96785 6.03211 10.8333 8.33329 10.8333ZM18.3331 16.6668C18.3331 13.8585 16.6665 11.2502 14.9998 10.0002C15.5476 9.58914 15.9857 9.0494 16.2753 8.42872C16.5648 7.80804 16.6969 7.12555 16.6598 6.44166C16.6227 5.75777 16.4176 5.09357 16.0627 4.50783C15.7077 3.92209 15.2139 3.43288 14.6248 3.0835" stroke="#F7E7CE" stroke-opacity="0.8" stroke-width="2" stroke-linecap="round" stroke-linejoin="round"/>
</g>
</svg>
