<svg width="20" height="20" viewBox="0 0 20 20" fill="none" xmlns="http://www.w3.org/2000/svg">
<g id="truck">
<path id="Vector" d="M11.6665 15V5.00004C11.6665 4.55801 11.4909 4.13409 11.1783 3.82153C10.8658 3.50897 10.4419 3.33337 9.99984 3.33337H3.33317C2.89114 3.33337 2.46722 3.50897 2.15466 3.82153C1.8421 4.13409 1.6665 4.55801 1.6665 5.00004V14.1667C1.6665 14.3877 1.7543 14.5997 1.91058 14.756C2.06686 14.9122 2.27882 15 2.49984 15H4.1665M4.1665 15C4.1665 15.9205 4.9127 16.6667 5.83317 16.6667C6.75365 16.6667 7.49984 15.9205 7.49984 15M4.1665 15C4.1665 14.0796 4.9127 13.3334 5.83317 13.3334C6.75365 13.3334 7.49984 14.0796 7.49984 15M12.4998 15H7.49984M12.4998 15C12.4998 15.9205 13.246 16.6667 14.1665 16.6667C15.087 16.6667 15.8332 15.9205 15.8332 15M12.4998 15C12.4998 14.0796 13.246 13.3334 14.1665 13.3334C15.087 13.3334 15.8332 14.0796 15.8332 15M15.8332 15H17.4998C17.7209 15 17.9328 14.9122 18.0891 14.756C18.2454 14.5997 18.3332 14.3877 18.3332 14.1667V11.125C18.3328 10.9359 18.2682 10.7525 18.1498 10.605L15.2498 6.98004C15.1719 6.88244 15.073 6.80361 14.9605 6.74937C14.848 6.69514 14.7247 6.66689 14.5998 6.66671H11.6665" stroke="#F7E7CE" stroke-opacity="0.8" stroke-width="2" stroke-linecap="round" stroke-linejoin="round"/>
</g>
</svg>
