<svg width="16" height="12" viewBox="0 0 16 12" fill="none" xmlns="http://www.w3.org/2000/svg">
<path d="M4.33331 4.66659C4.51741 4.66659 4.66665 4.51735 4.66665 4.33325C4.66665 4.14916 4.51741 3.99992 4.33331 3.99992C4.14922 3.99992 3.99998 4.14916 3.99998 4.33325C3.99998 4.51735 4.14922 4.66659 4.33331 4.66659Z" fill="black"/>
<path d="M9.99998 1.33325L14.2 5.53325C14.3491 5.6819 14.4675 5.85853 14.5482 6.05301C14.629 6.24749 14.6706 6.456 14.6706 6.66659C14.6706 6.87717 14.629 7.08568 14.5482 7.28016C14.4675 7.47464 14.3491 7.65127 14.2 7.79992L11.3333 10.6666M6.39065 1.72392C6.14066 1.47385 5.80157 1.33333 5.44798 1.33325H1.99998C1.82317 1.33325 1.6536 1.40349 1.52858 1.52851C1.40355 1.65354 1.33331 1.82311 1.33331 1.99992V5.44792C1.33339 5.80151 1.47391 6.1406 1.72398 6.39059L5.52665 10.1933C5.82966 10.4943 6.23948 10.6633 6.66665 10.6633C7.09382 10.6633 7.50364 10.4943 7.80665 10.1933L10.1933 7.80659C10.4944 7.50358 10.6634 7.09375 10.6634 6.66659C10.6634 6.23942 10.4944 5.82959 10.1933 5.52659L6.39065 1.72392ZM4.66665 4.33325C4.66665 4.51735 4.51741 4.66659 4.33331 4.66659C4.14922 4.66659 3.99998 4.51735 3.99998 4.33325C3.99998 4.14916 4.14922 3.99992 4.33331 3.99992C4.51741 3.99992 4.66665 4.14916 4.66665 4.33325Z" stroke="white" stroke-width="2" stroke-linecap="round" stroke-linejoin="round"/>
</svg>
