<svg width="44" height="44" viewBox="0 0 44 44" fill="none" xmlns="http://www.w3.org/2000/svg">
<g clip-path="url(#clip0_6923_14360)">
<path d="M30.625 28V30.6667C30.625 31.0203 30.4582 31.3594 30.1613 31.6095C29.8643 31.8595 29.4616 32 29.0417 32H17.9583C17.5384 32 17.1357 31.8595 16.8387 31.6095C16.5418 31.3594 16.375 31.0203 16.375 30.6667V28M27.4583 23.3333L23.5 20M23.5 20L19.5417 23.3333M23.5 20V28" stroke="#820000" stroke-width="1.5" stroke-linecap="round" stroke-linejoin="round"/>
<path d="M33.6531 39.222L32.9312 41.5251C32.9312 41.5595 32.8968 41.5939 32.8281 41.5939C32.7593 41.5939 32.725 41.5595 32.725 41.5251L32.4156 40.9408C32.0375 40.2189 31.35 39.772 30.5593 39.7376C29.7687 39.7033 29.0125 40.1158 28.5656 40.8033L27.5687 41.972C27.1906 42.4189 27.2593 43.072 27.6718 43.4158C27.8781 43.5876 28.1187 43.6564 28.325 43.6564C28.6 43.6564 28.9093 43.5189 29.1156 43.2783L30.1468 42.0751C30.1812 42.0408 30.2156 41.972 30.25 41.9376C30.3187 41.8345 30.3875 41.8001 30.4562 41.8001C30.4562 41.8001 30.4906 41.8001 30.525 41.8689L30.8343 42.4533C31.2468 43.2439 32.0718 43.7251 32.9656 43.6564C33.8593 43.5876 34.5812 43.0033 34.8562 42.1439L35.5781 39.8408C35.6468 39.6001 35.8187 39.5658 35.9218 39.5658C36.025 39.5658 36.2312 39.5658 36.3343 39.772L37.3656 41.7314C37.8812 42.6939 38.775 43.3126 39.8406 43.4845C40.9062 43.6564 41.9718 43.3126 42.7281 42.522C43.1406 42.1095 43.1406 41.4564 42.7281 41.0783C42.3156 40.6658 41.6625 40.6658 41.2843 41.0783C40.975 41.3876 40.5968 41.5251 40.15 41.4564C39.7375 41.3876 39.3937 41.147 39.1875 40.7689L38.1562 38.8095C37.675 37.9158 36.7468 37.4001 35.75 37.5033C34.7875 37.572 33.9625 38.2595 33.6531 39.222Z" fill="#820000"/>
<path d="M6.1875 5.15625C5.60312 5.15625 5.15625 5.60312 5.15625 6.1875C5.15625 6.77188 5.60312 7.21875 6.1875 7.21875H7.5625C8.14687 7.21875 8.59375 6.77188 8.59375 6.1875C8.59375 5.60312 8.14687 5.15625 7.5625 5.15625H6.1875Z" fill="#820000"/>
<path d="M11.6875 5.15625C11.1031 5.15625 10.6562 5.60312 10.6562 6.1875C10.6562 6.77188 11.1031 7.21875 11.6875 7.21875H13.0625C13.6469 7.21875 14.0938 6.77188 14.0938 6.1875C14.0938 5.60312 13.6469 5.15625 13.0625 5.15625H11.6875Z" fill="#820000"/>
<path d="M39.1875 0.34375H4.8125C2.3375 0.34375 0.34375 2.3375 0.34375 4.8125V42.625C0.34375 43.2094 0.790625 43.6562 1.375 43.6562C1.95938 43.6562 2.40625 43.2094 2.40625 42.625V12.0312H18.5625C19.1469 12.0312 19.5938 11.5844 19.5938 11C19.5938 10.4156 19.1469 9.96875 18.5625 9.96875H2.40625V4.8125C2.40625 3.47187 3.47187 2.40625 4.8125 2.40625H39.1875C40.5281 2.40625 41.5938 3.47187 41.5938 4.8125V35.75C41.5938 36.3344 42.0406 36.7812 42.625 36.7812C43.2094 36.7812 43.6562 36.3344 43.6562 35.75V4.8125C43.6562 2.3375 41.6625 0.34375 39.1875 0.34375Z" fill="#820000"/>
<path d="M19.9375 41.5938C19.3531 41.5938 18.9062 42.0406 18.9062 42.625C18.9062 43.2094 19.3531 43.6562 19.9375 43.6562H23.375C23.9594 43.6562 24.4062 43.2094 24.4062 42.625C24.4062 42.0406 23.9594 41.5938 23.375 41.5938H19.9375Z" fill="#820000"/>
</g>
<defs>
<clipPath id="clip0_6923_14360">
<rect width="44" height="44" fill="white"/>
</clipPath>
</defs>
</svg>
