<svg width="84" height="84" viewBox="0 0 84 84" fill="none" xmlns="http://www.w3.org/2000/svg">
<rect width="84" height="84" rx="8" fill="#F7E7CE"/>
<g clip-path="url(#clip0_6649_8848)">
<path d="M50.625 48V50.6667C50.625 51.0203 50.4582 51.3594 50.1613 51.6095C49.8643 51.8595 49.4616 52 49.0417 52H37.9583C37.5384 52 37.1357 51.8595 36.8387 51.6095C36.5418 51.3594 36.375 51.0203 36.375 50.6667V48M47.4583 43.3333L43.5 40M43.5 40L39.5417 43.3333M43.5 40V48" stroke="#820000" stroke-width="1.5" stroke-linecap="round" stroke-linejoin="round"/>
<path d="M53.6531 59.222L52.9312 61.5251C52.9312 61.5595 52.8968 61.5939 52.8281 61.5939C52.7593 61.5939 52.725 61.5595 52.725 61.5251L52.4156 60.9408C52.0375 60.2189 51.35 59.772 50.5593 59.7376C49.7687 59.7033 49.0125 60.1158 48.5656 60.8033L47.5687 61.972C47.1906 62.4189 47.2593 63.072 47.6718 63.4158C47.8781 63.5876 48.1187 63.6564 48.325 63.6564C48.6 63.6564 48.9093 63.5189 49.1156 63.2783L50.1468 62.0751C50.1812 62.0408 50.2156 61.972 50.25 61.9376C50.3187 61.8345 50.3875 61.8001 50.4562 61.8001C50.4562 61.8001 50.4906 61.8001 50.525 61.8689L50.8343 62.4533C51.2468 63.2439 52.0718 63.7251 52.9656 63.6564C53.8593 63.5876 54.5812 63.0033 54.8562 62.1439L55.5781 59.8408C55.6468 59.6001 55.8187 59.5658 55.9218 59.5658C56.025 59.5658 56.2312 59.5658 56.3343 59.772L57.3656 61.7314C57.8812 62.6939 58.775 63.3126 59.8406 63.4845C60.9062 63.6564 61.9718 63.3126 62.7281 62.522C63.1406 62.1095 63.1406 61.4564 62.7281 61.0783C62.3156 60.6658 61.6625 60.6658 61.2843 61.0783C60.975 61.3876 60.5968 61.5251 60.15 61.4564C59.7375 61.3876 59.3937 61.147 59.1875 60.7689L58.1562 58.8095C57.675 57.9158 56.7468 57.4001 55.75 57.5033C54.7875 57.572 53.9625 58.2595 53.6531 59.222Z" fill="#820000"/>
<path d="M26.1875 25.1562C25.6031 25.1562 25.1562 25.6031 25.1562 26.1875C25.1562 26.7719 25.6031 27.2188 26.1875 27.2188H27.5625C28.1469 27.2188 28.5938 26.7719 28.5938 26.1875C28.5938 25.6031 28.1469 25.1562 27.5625 25.1562H26.1875Z" fill="#820000"/>
<path d="M31.6875 25.1562C31.1031 25.1562 30.6562 25.6031 30.6562 26.1875C30.6562 26.7719 31.1031 27.2188 31.6875 27.2188H33.0625C33.6469 27.2188 34.0938 26.7719 34.0938 26.1875C34.0938 25.6031 33.6469 25.1562 33.0625 25.1562H31.6875Z" fill="#820000"/>
<path d="M59.1875 20.3438H24.8125C22.3375 20.3438 20.3438 22.3375 20.3438 24.8125V62.625C20.3438 63.2094 20.7906 63.6562 21.375 63.6562C21.9594 63.6562 22.4062 63.2094 22.4062 62.625V32.0312H38.5625C39.1469 32.0312 39.5938 31.5844 39.5938 31C39.5938 30.4156 39.1469 29.9688 38.5625 29.9688H22.4062V24.8125C22.4062 23.4719 23.4719 22.4062 24.8125 22.4062H59.1875C60.5281 22.4062 61.5938 23.4719 61.5938 24.8125V55.75C61.5938 56.3344 62.0406 56.7812 62.625 56.7812C63.2094 56.7812 63.6562 56.3344 63.6562 55.75V24.8125C63.6562 22.3375 61.6625 20.3438 59.1875 20.3438Z" fill="#820000"/>
<path d="M39.9375 61.5938C39.3531 61.5938 38.9062 62.0406 38.9062 62.625C38.9062 63.2094 39.3531 63.6562 39.9375 63.6562H43.375C43.9594 63.6562 44.4062 63.2094 44.4062 62.625C44.4062 62.0406 43.9594 61.5938 43.375 61.5938H39.9375Z" fill="#820000"/>
</g>
<defs>
<clipPath id="clip0_6649_8848">
<rect width="44" height="44" fill="white" transform="translate(20 20)"/>
</clipPath>
</defs>
</svg>
