<svg width="20" height="20" viewBox="0 0 20 20" fill="none" xmlns="http://www.w3.org/2000/svg">
<g id="users">
<path id="Vector" d="M13.3333 17.5V15.8333C13.3333 14.9493 12.9821 14.1014 12.357 13.4763C11.7319 12.8512 10.884 12.5 9.99999 12.5H4.99999C4.11593 12.5 3.26809 12.8512 2.64297 13.4763C2.01785 14.1014 1.66666 14.9493 1.66666 15.8333V17.5M18.3333 17.4999V15.8332C18.3328 15.0947 18.087 14.3772 17.6345 13.7935C17.182 13.2098 16.5484 12.7929 15.8333 12.6082M13.3333 2.60824C14.0503 2.79182 14.6859 3.20882 15.1397 3.79349C15.5935 4.37817 15.8399 5.09726 15.8399 5.8374C15.8399 6.57754 15.5935 7.29664 15.1397 7.88131C14.6859 8.46598 14.0503 8.88298 13.3333 9.06657M10.8333 5.83333C10.8333 7.67428 9.34094 9.16667 7.49999 9.16667C5.65904 9.16667 4.16666 7.67428 4.16666 5.83333C4.16666 3.99238 5.65904 2.5 7.49999 2.5C9.34094 2.5 10.8333 3.99238 10.8333 5.83333Z" stroke="#787A7D" stroke-width="2" stroke-linecap="round" stroke-linejoin="round"/>
</g>
</svg>
