<svg width="18" height="18" viewBox="0 0 18 18" fill="none" xmlns="http://www.w3.org/2000/svg">
<path d="M12.75 2.24999C12.941 2.02427 13.1773 1.84053 13.4438 1.7105C13.7102 1.58047 14.0011 1.50699 14.2977 1.49475C14.5944 1.48251 14.8904 1.53177 15.1668 1.6394C15.4432 1.74703 15.694 1.91067 15.9032 2.11988C16.1124 2.32909 16.2755 2.57929 16.3819 2.85452C16.4883 3.12975 16.5359 3.42399 16.5215 3.71847C16.507 4.01296 16.431 4.30123 16.2982 4.56491C16.1653 4.8286 15.9787 5.06191 15.75 5.24999L5.625 15.375L1.5 16.5L2.625 12.375L12.75 2.24999Z" stroke="#0B9C56" stroke-width="2" stroke-linecap="round" stroke-linejoin="round"/>
</svg>
