<svg width="20" height="13" viewBox="0 0 20 13" fill="none" xmlns="http://www.w3.org/2000/svg">
<path d="M15.8333 10.1666H17.5C18 10.1666 18.3333 9.83331 18.3333 9.33331V6.83331C18.3333 6.08331 17.75 5.41665 17.0833 5.24998C15.5833 4.83331 13.3333 4.33331 13.3333 4.33331C13.3333 4.33331 12.25 3.16665 11.5 2.41665C11.0833 2.08331 10.5833 1.83331 10 1.83331H4.16667C3.66667 1.83331 3.25001 2.16665 3.00001 2.58331L1.83334 4.99998C1.72299 5.32183 1.66667 5.65973 1.66667 5.99998V9.33331C1.66667 9.83331 2.00001 10.1666 2.50001 10.1666H4.16667M15.8333 10.1666C15.8333 11.0871 15.0871 11.8333 14.1667 11.8333C13.2462 11.8333 12.5 11.0871 12.5 10.1666M15.8333 10.1666C15.8333 9.24617 15.0871 8.49998 14.1667 8.49998C13.2462 8.49998 12.5 9.24617 12.5 10.1666M4.16667 10.1666C4.16667 11.0871 4.91286 11.8333 5.83334 11.8333C6.75381 11.8333 7.50001 11.0871 7.50001 10.1666M4.16667 10.1666C4.16667 9.24617 4.91286 8.49998 5.83334 8.49998C6.75381 8.49998 7.50001 9.24617 7.50001 10.1666M7.50001 10.1666H12.5" stroke="#F7E7CE" stroke-opacity="0.8" stroke-width="2" stroke-linecap="round" stroke-linejoin="round"/>
</svg>
