<svg width="18" height="15" viewBox="0 0 18 15" fill="none" xmlns="http://www.w3.org/2000/svg">
<path d="M6.75 8.75L8.25 10.25L11.25 7.25M15 14C15.3978 14 15.7794 13.842 16.0607 13.5607C16.342 13.2794 16.5 12.8978 16.5 12.5V5C16.5 4.60218 16.342 4.22064 16.0607 3.93934C15.7794 3.65804 15.3978 3.5 15 3.5H9.075C8.82414 3.50246 8.57666 3.44196 8.35523 3.32403C8.13379 3.20611 7.94547 3.03453 7.8075 2.825L7.2 1.925C7.06342 1.7176 6.87748 1.54736 6.65887 1.42955C6.44027 1.31174 6.19583 1.25004 5.9475 1.25H3C2.60218 1.25 2.22064 1.40804 1.93934 1.68934C1.65804 1.97064 1.5 2.35218 1.5 2.75V12.5C1.5 12.8978 1.65804 13.2794 1.93934 13.5607C2.22064 13.842 2.60218 14 3 14H15Z" stroke="#4B5C79" stroke-width="1.5" stroke-linecap="round" stroke-linejoin="round"/>
</svg>
