<svg width="34" height="34" viewBox="0 0 34 34" fill="none" xmlns="http://www.w3.org/2000/svg">
<g id="Group 81">
<rect id="Rectangle 5445" x="0.594317" y="0.953448" width="32.0931" height="32.0931" rx="8.91475" fill="white" stroke="white" stroke-width="1.18863"/>
<g id="Group 2497">
<path id="Vector" d="M13.8422 8.89319H10.0849C9.25301 8.89319 8.57861 9.56758 8.57861 10.3995V14.1567C8.57861 14.9886 9.25301 15.663 10.0849 15.663H13.8422C14.6741 15.663 15.3485 14.9886 15.3485 14.1567V10.3995C15.3485 9.56758 14.6741 8.89319 13.8422 8.89319Z" fill="#80BFF4"/>
<path id="Vector_2" d="M23.3673 8.89319H19.6101C18.7782 8.89319 18.1038 9.56758 18.1038 10.3995V14.1567C18.1038 14.9886 18.7782 15.663 19.6101 15.663H23.3673C24.1992 15.663 24.8736 14.9886 24.8736 14.1567V10.3995C24.8736 9.56758 24.1992 8.89319 23.3673 8.89319Z" fill="#88DCC6"/>
<path id="Vector_3" d="M13.8422 18.5218H10.0849C9.25301 18.5218 8.57861 19.1962 8.57861 20.0281V23.7853C8.57861 24.6172 9.25301 25.2916 10.0849 25.2916H13.8422C14.6741 25.2916 15.3485 24.6172 15.3485 23.7853V20.0281C15.3485 19.1962 14.6741 18.5218 13.8422 18.5218Z" fill="#FF6678"/>
<path id="Vector_4" d="M23.3673 18.5218H19.6101C18.7782 18.5218 18.1038 19.1962 18.1038 20.0281V23.7853C18.1038 24.6172 18.7782 25.2916 19.6101 25.2916H23.3673C24.1992 25.2916 24.8736 24.6172 24.8736 23.7853V20.0281C24.8736 19.1962 24.1992 18.5218 23.3673 18.5218Z" fill="#FFD15B"/>
</g>
</g>
</svg>
