<svg width="36" height="36" viewBox="0 0 36 36" fill="none" xmlns="http://www.w3.org/2000/svg">
<rect width="36" height="36" rx="18" fill="#DED0B9"/>
<path d="M15.3334 14.6667H20.6667M18 21.6667L15.3334 20H16C16.7073 20 17.3855 19.719 17.8856 19.219C18.3857 18.7189 18.6667 18.0406 18.6667 17.3333C18.6667 16.6261 18.3857 15.9478 17.8856 15.4477C17.3855 14.9476 16.7073 14.6667 16 14.6667M15.3334 17.3333H20.6667M12.6667 11.3333V24.6667L14 24L15.3334 24.6667L16.6667 24L18 24.6667L19.3334 24L20.6667 24.6667L22 24L23.3334 24.6667V11.3333L22 12L20.6667 11.3333L19.3334 12L18 11.3333L16.6667 12L15.3334 11.3333L14 12L12.6667 11.3333Z" stroke="#4B5C79" stroke-width="1.5" stroke-linecap="round" stroke-linejoin="round"/>
</svg>
