<svg width="36" height="36" viewBox="0 0 36 36" fill="none" xmlns="http://www.w3.org/2000/svg">
<rect width="36" height="36" rx="18" fill="#820000"/>
<path d="M19.6665 24.6667H21.9998C22.3535 24.6667 22.6926 24.5262 22.9426 24.2761C23.1927 24.0261 23.3332 23.687 23.3332 23.3333V14.6667L19.9998 11.3333H13.9998C13.6462 11.3333 13.3071 11.4738 13.057 11.7239C12.807 11.9739 12.6665 12.313 12.6665 12.6667V15.3333M19.3332 11.3333V14C19.3332 14.3536 19.4736 14.6928 19.7237 14.9428C19.9737 15.1929 20.3129 15.3333 20.6665 15.3333H23.3332M14.6665 21.3333V24.6667M14.6665 21.3333L17.7999 19.4666M14.6665 21.3333L11.5332 19.4666M11.9999 18.7334C11.7944 18.8519 11.6243 19.0232 11.5072 19.2294C11.39 19.4357 11.3299 19.6695 11.3332 19.9067V22.0667C11.3255 22.3042 11.3814 22.5394 11.4951 22.748C11.6088 22.9566 11.7761 23.1311 11.9799 23.2534L13.9999 24.4667C14.2043 24.5885 14.4377 24.6533 14.6756 24.6545C14.9136 24.6557 15.1476 24.5931 15.3532 24.4734L17.3332 23.2667C17.5387 23.1481 17.7088 22.9768 17.826 22.7706C17.9432 22.5643 18.0032 22.3305 17.9999 22.0934V19.9334C18.0076 19.6959 17.9517 19.4607 17.838 19.252C17.7243 19.0434 17.557 18.8689 17.3532 18.7467L15.3332 17.5334C15.1288 17.4116 14.8954 17.3467 14.6575 17.3456C14.4195 17.3444 14.1855 17.4069 13.9799 17.5267L11.9999 18.7334Z" stroke="white" stroke-width="2" stroke-linecap="round" stroke-linejoin="round"/>
</svg>
