<svg width="36" height="36" viewBox="0 0 36 36" fill="none" xmlns="http://www.w3.org/2000/svg">
<rect width="36" height="36" rx="18" fill="#820000"/>
<path d="M12.2 14.6667L18 18.0001M18 18.0001L23.8 14.6667M18 18.0001L18 24.6667M24 15.3333C23.9998 15.0995 23.938 14.8699 23.821 14.6675C23.704 14.465 23.5358 14.2969 23.3333 14.18L18.6667 11.5133C18.464 11.3963 18.234 11.3347 18 11.3347C17.766 11.3347 17.536 11.3963 17.3333 11.5133L12.6667 14.18C12.4642 14.2969 12.296 14.465 12.179 14.6675C12.062 14.8699 12.0002 15.0995 12 15.3333V20.6667C12.0002 20.9005 12.062 21.1301 12.179 21.3326C12.296 21.535 12.4642 21.7031 12.6667 21.82L17.3333 24.4867C17.536 24.6037 17.766 24.6653 18 24.6653C18.234 24.6653 18.464 24.6037 18.6667 24.4867L23.3333 21.82C23.5358 21.7031 23.704 21.535 23.821 21.3326C23.938 21.1301 23.9998 20.9005 24 20.6667V15.3333Z" stroke="white" stroke-width="2" stroke-linecap="round" stroke-linejoin="round"/>
</svg>
