<svg width="16" height="17" viewBox="0 0 16 17" fill="none" xmlns="http://www.w3.org/2000/svg">
<g clip-path="url(#clip0_6246_2783)">
<path d="M1.33331 14.5C1.33326 13.4735 1.6294 12.4689 2.18621 11.6066C2.74302 10.7443 3.53683 10.061 4.47238 9.63865C5.40793 9.21634 6.44547 9.07297 7.46049 9.22575C8.4755 9.37854 9.42487 9.82097 10.1946 10.5M12.6666 11.1667V15.1667M14.6666 13.1667H10.6666M9.99998 5.83333C9.99998 7.67428 8.5076 9.16667 6.66665 9.16667C4.8257 9.16667 3.33331 7.67428 3.33331 5.83333C3.33331 3.99238 4.8257 2.5 6.66665 2.5C8.5076 2.5 9.99998 3.99238 9.99998 5.83333Z" stroke="#820000" stroke-width="2" stroke-linecap="round" stroke-linejoin="round"/>
</g>
<defs>
<clipPath id="clip0_6246_2783">
<rect width="16" height="16" fill="white" transform="translate(0 0.5)"/>
</clipPath>
</defs>
</svg>
